<svg id="svg" version="1.1" xmlns="http://www.w3.org/2000/svg" xmlns:xlink="http://www.w3.org/1999/xlink" width="400" height="400" viewBox="0, 0, 400,400"><g id="svgg"><path id="path0" d="M195.327 19.777 C 187.507 21.554,179.417 27.792,176.176 34.544 C 173.887 39.311,173.555 39.528,167.121 40.456 C 161.231 41.305,155.744 42.839,150.125 45.210 C 147.966 46.121,144.000 47.457,141.311 48.179 C 137.644 49.164,135.787 49.906,133.885 51.145 C 132.490 52.053,130.050 53.239,128.463 53.778 C 124.597 55.093,121.124 56.897,118.426 58.991 C 117.202 59.941,115.217 61.209,114.015 61.809 C 110.079 63.774,101.064 70.085,97.925 73.073 C 96.234 74.683,94.658 76.000,94.423 76.000 C 93.865 76.000,76.000 93.865,76.000 94.423 C 76.000 94.658,74.683 96.234,73.073 97.925 C 70.037 101.114,63.791 110.060,61.679 114.244 C 61.013 115.564,59.833 117.403,59.058 118.330 C 57.005 120.788,55.444 123.720,54.017 127.800 C 53.324 129.780,52.022 132.531,51.123 133.913 C 49.900 135.794,49.162 137.655,48.187 141.313 C 47.471 144.001,46.337 147.408,45.666 148.884 C 44.996 150.360,43.971 153.060,43.388 154.884 C 42.804 156.708,42.068 159.010,41.751 160.000 C 41.227 161.636,40.801 164.652,39.011 179.400 C 36.726 198.223,36.867 202.858,40.622 232.400 C 41.251 237.355,43.256 244.184,45.788 250.000 C 46.602 251.870,47.713 255.200,48.257 257.400 C 48.981 260.330,49.822 262.417,51.399 265.200 C 55.108 271.744,55.247 274.421,52.227 281.140 C 48.100 290.322,48.213 293.699,52.969 303.457 C 55.267 308.173,55.730 308.850,57.465 310.040 C 58.529 310.769,60.343 312.131,61.495 313.066 C 65.697 316.477,72.711 317.441,84.035 316.164 C 86.883 315.843,88.105 316.447,91.130 319.673 C 92.378 321.005,94.210 322.644,95.200 323.316 C 96.190 323.987,98.755 326.045,100.899 327.889 C 103.043 329.734,105.902 331.866,107.251 332.629 C 108.601 333.392,110.405 334.570,111.261 335.248 C 112.116 335.926,113.758 336.928,114.908 337.475 C 116.059 338.022,118.125 339.174,119.500 340.035 C 120.875 340.896,123.125 342.300,124.500 343.155 C 125.875 344.011,127.990 345.027,129.200 345.414 C 130.410 345.801,133.560 347.162,136.200 348.439 C 138.840 349.717,142.260 351.042,143.800 351.385 C 145.340 351.728,148.760 352.719,151.400 353.587 C 167.420 358.852,166.893 358.725,176.289 359.580 C 192.983 361.098,206.515 361.047,224.566 359.399 C 231.587 358.757,233.864 358.171,247.000 353.622 C 248.760 353.013,251.910 352.102,254.000 351.598 C 256.367 351.027,259.404 349.882,262.054 348.561 C 264.394 347.394,267.445 346.057,268.834 345.588 C 271.937 344.543,272.666 344.167,276.200 341.791 C 277.740 340.755,280.620 339.095,282.600 338.101 C 284.580 337.107,287.190 335.526,288.400 334.589 C 289.610 333.651,291.410 332.486,292.400 332.001 C 293.390 331.515,295.100 330.244,296.200 329.175 C 297.300 328.106,299.660 326.100,301.445 324.716 C 303.230 323.332,305.898 321.182,307.376 319.939 C 310.615 317.212,311.654 316.967,315.600 318.000 C 328.418 321.358,343.497 312.553,346.041 300.224 C 347.391 293.686,346.855 286.610,344.598 281.175 C 342.888 277.056,342.775 276.472,343.373 274.859 C 343.670 274.057,344.495 271.780,345.205 269.800 C 345.916 267.820,347.439 264.310,348.590 262.000 C 349.882 259.405,351.032 256.348,351.598 254.000 C 352.102 251.910,353.008 248.760,353.613 247.000 C 358.365 233.158,358.750 231.667,359.397 224.588 C 361.045 206.539,361.095 193.073,359.576 176.289 C 358.725 166.890,358.855 167.427,353.587 151.400 C 352.719 148.760,351.728 145.340,351.385 143.800 C 351.042 142.260,349.755 138.930,348.526 136.400 C 347.297 133.870,345.875 130.581,345.366 129.091 C 344.858 127.601,344.097 125.891,343.676 125.291 C 342.185 123.165,338.024 116.114,337.595 114.988 C 337.356 114.359,336.292 112.665,335.229 111.223 C 334.167 109.780,332.911 107.832,332.437 106.893 C 331.964 105.954,329.997 103.344,328.066 101.093 C 326.136 98.842,324.137 96.370,323.624 95.600 C 323.112 94.830,321.190 92.670,319.353 90.800 C 317.517 88.930,313.908 85.240,311.335 82.600 C 308.761 79.960,305.897 77.260,304.971 76.600 C 304.044 75.940,301.701 73.993,299.763 72.272 C 297.826 70.552,295.151 68.509,293.820 67.732 C 292.489 66.955,290.680 65.733,289.800 65.016 C 288.920 64.299,287.224 63.219,286.030 62.614 C 284.837 62.010,282.047 60.299,279.830 58.812 C 275.154 55.674,274.184 55.156,271.200 54.212 C 269.990 53.829,267.290 52.552,265.200 51.375 C 262.464 49.834,260.396 49.002,257.815 48.401 C 255.843 47.943,252.333 46.769,250.015 45.792 C 243.402 43.007,237.473 41.271,232.061 40.538 C 226.216 39.745,225.102 39.156,223.469 35.992 C 217.813 25.036,204.907 17.599,195.327 19.777 M173.977 53.779 C 174.410 54.171,175.246 55.749,175.832 57.285 C 178.588 64.495,189.718 72.081,198.400 72.666 C 206.676 73.223,220.707 64.374,223.323 56.948 C 225.101 51.900,227.133 51.796,239.800 56.102 C 244.640 57.748,250.220 59.574,252.200 60.160 C 254.180 60.746,257.780 62.195,260.200 63.379 C 262.620 64.564,266.151 66.265,268.046 67.159 C 269.941 68.053,272.634 69.626,274.030 70.654 C 275.426 71.681,277.863 73.112,279.446 73.833 C 281.251 74.656,283.344 76.070,285.062 77.628 C 286.568 78.994,289.330 81.143,291.200 82.404 C 298.798 87.529,312.174 101.128,317.375 109.018 C 318.542 110.788,320.600 113.488,321.948 115.018 C 323.400 116.665,325.039 119.127,325.966 121.051 C 326.827 122.839,328.151 125.179,328.909 126.251 C 330.923 129.099,333.149 133.260,334.410 136.532 C 335.017 138.109,336.411 141.481,337.506 144.024 C 338.658 146.698,340.018 150.831,340.732 153.824 C 341.411 156.671,342.675 161.070,343.542 163.600 C 350.165 182.937,350.021 215.066,343.216 236.200 C 342.153 239.500,340.809 244.180,340.228 246.600 C 339.646 249.026,338.380 252.705,337.407 254.800 C 336.436 256.890,335.100 260.013,334.440 261.741 C 332.182 267.645,331.201 268.297,325.683 267.561 C 309.829 265.447,300.091 272.398,295.956 288.780 C 294.877 293.055,295.061 294.957,297.219 301.800 C 298.984 307.397,299.096 309.366,297.734 310.876 C 296.821 311.888,289.334 317.688,288.067 318.365 C 287.554 318.639,285.844 320.049,284.267 321.498 C 282.374 323.238,280.411 324.584,278.488 325.462 C 276.886 326.193,273.399 328.170,270.739 329.855 C 267.883 331.665,264.408 333.474,262.251 334.274 C 260.243 335.019,256.853 336.445,254.717 337.441 C 252.502 338.475,248.979 339.693,246.517 340.276 C 244.143 340.838,239.500 342.163,236.200 343.220 C 215.261 349.930,182.734 350.161,164.200 343.732 C 162.000 342.969,157.500 341.661,154.200 340.825 C 150.900 339.988,146.220 338.454,143.800 337.415 C 141.380 336.376,137.870 334.910,136.000 334.156 C 134.130 333.402,130.890 331.714,128.800 330.403 C 126.710 329.093,123.515 327.288,121.699 326.391 C 119.837 325.471,117.135 323.663,115.499 322.242 C 113.905 320.856,110.918 318.599,108.861 317.225 C 98.260 310.143,96.779 307.832,99.444 302.534 L 101.339 298.765 101.522 293.383 C 101.838 284.048,99.344 277.586,93.209 271.847 C 88.498 267.441,79.364 264.692,72.545 265.628 C 67.321 266.345,66.805 266.066,63.887 260.937 C 62.371 258.270,61.181 255.452,60.201 252.202 C 59.406 249.563,57.493 243.713,55.951 239.202 C 49.061 219.042,48.997 179.426,55.823 159.800 C 57.277 155.620,59.160 149.799,60.009 146.865 C 61.029 143.335,62.092 140.628,63.150 138.865 C 64.030 137.399,65.188 135.024,65.725 133.586 C 67.172 129.705,68.530 127.205,70.512 124.772 C 71.488 123.574,72.911 121.242,73.674 119.591 C 74.576 117.638,76.145 115.332,78.163 112.994 C 79.870 111.017,81.705 108.544,82.241 107.498 C 83.216 105.596,87.638 100.343,90.542 97.637 C 92.517 95.797,95.797 92.517,97.637 90.542 C 100.343 87.638,105.596 83.216,107.498 82.241 C 108.544 81.705,111.017 79.870,112.994 78.163 C 115.332 76.145,117.638 74.576,119.591 73.674 C 121.242 72.911,123.574 71.488,124.772 70.512 C 127.205 68.530,129.705 67.172,133.586 65.725 C 135.024 65.188,137.399 64.030,138.865 63.150 C 140.622 62.095,143.347 61.024,146.865 60.004 C 149.799 59.153,155.170 57.428,158.800 56.171 C 169.513 52.460,172.074 52.057,173.977 53.779 M141.755 116.426 C 135.278 117.292,130.726 121.116,127.863 128.096 L 127.000 130.200 127.000 194.600 C 127.000 266.314,126.808 261.265,129.697 265.336 C 135.213 273.110,134.994 272.886,138.243 274.105 C 141.719 275.410,149.460 275.394,153.279 274.074 C 157.332 272.674,158.282 271.842,160.674 267.600 C 164.858 260.182,164.517 264.016,164.837 220.800 C 165.211 170.260,165.208 170.288,171.266 161.600 C 172.569 159.730,174.213 157.302,174.918 156.204 C 175.680 155.017,177.011 153.692,178.200 152.937 C 179.300 152.238,181.416 150.796,182.902 149.733 C 188.393 145.806,192.009 145.024,203.367 145.309 C 213.971 145.575,214.935 145.927,220.819 151.671 C 225.248 155.996,225.470 156.500,227.579 167.066 C 229.468 176.526,229.593 179.611,229.600 217.200 C 229.608 259.868,229.605 259.829,233.931 267.600 C 236.929 272.986,239.875 274.663,247.090 275.090 C 254.784 275.545,258.633 274.024,262.293 269.081 C 266.501 263.400,266.167 267.892,266.318 215.000 C 266.484 157.009,266.307 153.547,262.801 146.200 C 261.752 144.000,260.390 140.957,259.775 139.437 C 258.902 137.280,258.102 136.141,256.124 134.237 C 254.731 132.897,253.008 130.939,252.295 129.887 C 251.024 128.009,245.362 123.947,239.187 120.482 C 233.450 117.263,215.428 115.255,205.800 116.762 C 193.371 118.707,191.562 119.277,186.031 122.994 C 184.178 124.239,181.631 125.779,180.371 126.415 C 178.889 127.163,177.344 128.417,175.996 129.967 C 174.850 131.285,172.949 133.026,171.772 133.837 C 170.595 134.648,169.141 136.020,168.541 136.886 C 164.716 142.405,162.393 141.151,161.203 132.925 C 160.306 126.722,159.302 123.883,157.136 121.422 C 153.997 117.856,147.307 115.683,141.755 116.426 " stroke="none" fill="#f6f8f7" fill-rule="evenodd"></path><path id="path1" d="M171.000 6.000 C 169.020 6.169,166.612 6.598,165.650 6.954 C 164.687 7.309,163.331 7.600,162.637 7.600 C 161.942 7.600,160.390 7.882,159.187 8.227 C 157.984 8.572,156.010 9.117,154.800 9.437 C 153.590 9.758,151.340 10.368,149.800 10.793 C 148.260 11.219,145.650 11.675,144.000 11.808 C 140.894 12.057,135.151 13.895,133.108 15.295 C 132.508 15.706,130.798 16.579,129.308 17.235 C 127.819 17.890,126.150 18.673,125.600 18.975 C 125.050 19.277,123.700 19.652,122.600 19.808 C 119.683 20.223,115.187 22.196,112.286 24.333 C 109.634 26.287,106.950 27.614,104.120 28.371 C 103.120 28.638,101.421 29.683,99.920 30.953 C 98.520 32.138,95.622 33.949,93.400 35.029 C 90.660 36.360,88.644 37.683,87.000 39.228 C 85.680 40.469,83.560 42.142,82.288 42.945 C 81.017 43.748,79.217 45.101,78.288 45.952 C 77.360 46.802,75.700 48.053,74.600 48.731 C 73.500 49.408,71.985 50.736,71.233 51.681 C 70.481 52.627,68.558 54.273,66.959 55.339 C 63.898 57.382,62.949 58.252,62.236 59.671 C 61.996 60.148,60.721 61.376,59.403 62.400 C 58.085 63.425,56.645 64.955,56.203 65.800 C 55.761 66.646,54.068 68.702,52.441 70.369 C 50.813 72.036,49.020 74.120,48.456 75.000 C 47.891 75.880,46.764 77.343,45.951 78.252 C 45.137 79.161,43.784 80.961,42.942 82.252 C 42.101 83.543,40.296 85.826,38.930 87.324 C 37.564 88.822,36.233 90.712,35.973 91.524 C 35.712 92.336,35.274 93.270,34.999 93.600 C 34.724 93.930,34.131 95.010,33.682 96.000 C 33.233 96.990,32.289 98.430,31.584 99.200 C 29.236 101.767,28.470 102.987,28.194 104.600 C 27.855 106.579,25.911 110.469,24.195 112.600 C 22.368 114.870,20.420 119.203,19.969 121.999 C 19.758 123.312,19.138 125.226,18.592 126.253 C 18.047 127.279,17.596 128.407,17.591 128.760 C 17.586 129.112,17.230 129.850,16.800 130.400 C 16.370 130.950,16.014 131.583,16.009 131.807 C 16.004 132.031,15.559 132.863,15.021 133.656 C 14.482 134.448,13.920 135.615,13.773 136.249 C 13.625 136.882,13.241 137.822,12.918 138.339 C 12.594 138.856,12.164 141.098,11.958 143.339 C 11.753 145.572,11.235 148.497,10.807 149.839 C 10.379 151.180,9.904 153.070,9.752 154.039 C 9.600 155.007,9.129 156.610,8.706 157.600 C 8.282 158.590,7.780 160.900,7.589 162.734 C 7.398 164.567,7.032 166.320,6.775 166.630 C 5.318 168.386,5.085 229.965,6.525 232.796 C 6.915 233.564,7.422 235.535,7.650 237.176 C 7.878 238.816,8.410 240.836,8.832 241.663 C 9.255 242.491,9.600 243.624,9.600 244.181 C 9.600 244.737,10.039 246.500,10.576 248.096 C 11.113 249.693,11.732 252.754,11.952 254.898 C 12.187 257.185,12.610 259.164,12.976 259.687 C 13.319 260.177,13.600 260.845,13.600 261.171 C 13.600 261.496,14.392 263.391,15.360 265.382 C 18.500 271.839,19.452 274.158,19.968 276.600 C 20.247 277.920,20.705 279.363,20.985 279.806 C 21.266 280.249,21.625 281.202,21.783 281.924 C 21.942 282.646,22.955 284.337,24.036 285.684 C 25.116 287.030,26.000 288.337,26.000 288.588 C 26.000 288.839,26.428 289.624,26.951 290.333 C 27.473 291.042,28.011 292.310,28.146 293.152 C 28.448 295.044,29.932 297.748,31.932 300.052 C 32.766 301.013,33.691 302.430,33.987 303.200 C 34.803 305.320,37.007 308.879,38.194 309.994 C 38.775 310.540,39.629 311.619,40.092 312.393 C 40.555 313.167,41.508 314.520,42.210 315.400 C 42.911 316.280,43.867 317.750,44.334 318.666 C 44.800 319.583,45.726 320.720,46.390 321.193 C 47.054 321.666,48.167 322.896,48.861 323.927 C 49.556 324.957,51.401 327.162,52.962 328.827 C 54.523 330.491,56.281 332.685,56.869 333.702 C 57.457 334.718,58.717 336.106,59.669 336.785 C 60.621 337.464,62.129 338.960,63.021 340.110 C 63.991 341.361,65.671 342.823,67.206 343.754 C 68.616 344.608,70.671 346.281,71.772 347.472 C 72.873 348.663,74.949 350.375,76.387 351.275 C 77.824 352.176,79.813 353.665,80.806 354.584 C 83.074 356.684,86.227 358.554,86.850 358.169 C 87.121 358.002,87.218 358.047,87.077 358.275 C 86.766 358.779,88.977 360.897,90.749 361.791 C 91.491 362.165,92.675 363.048,93.381 363.754 C 94.086 364.459,95.668 365.421,96.897 365.891 C 98.125 366.361,99.758 367.356,100.526 368.102 C 101.836 369.374,103.622 370.229,108.715 372.024 C 109.878 372.433,112.365 373.780,114.242 375.016 C 116.119 376.252,118.317 377.538,119.127 377.873 C 119.937 378.209,121.353 378.823,122.273 379.239 C 123.194 379.655,125.106 380.160,126.522 380.360 C 128.092 380.583,129.738 381.130,130.739 381.761 C 133.663 383.607,139.257 385.991,141.557 386.372 C 142.791 386.576,144.591 387.027,145.558 387.374 C 146.525 387.721,148.955 388.191,150.958 388.418 C 154.082 388.772,164.227 391.199,165.266 391.841 C 165.457 391.959,167.996 392.232,170.907 392.448 C 173.818 392.663,177.216 393.101,178.458 393.420 C 181.747 394.265,216.678 394.242,220.200 393.393 C 221.520 393.074,224.580 392.708,227.000 392.579 C 229.829 392.428,232.543 392.008,234.600 391.403 C 241.471 389.382,244.167 388.774,247.992 388.382 C 250.177 388.157,252.618 387.701,253.418 387.367 C 254.217 387.033,255.890 386.574,257.135 386.348 C 258.430 386.112,261.798 384.771,265.000 383.217 C 269.093 381.230,271.241 380.421,272.983 380.210 C 274.294 380.051,276.184 379.519,277.183 379.027 C 281.191 377.054,284.663 375.018,285.800 373.973 C 286.460 373.367,287.900 372.602,289.000 372.273 C 291.989 371.380,296.798 369.056,298.525 367.671 C 299.364 366.998,300.910 366.162,301.962 365.813 C 303.741 365.222,306.222 363.406,309.600 360.224 C 310.370 359.499,311.911 358.446,313.025 357.884 C 314.139 357.322,315.302 356.559,315.610 356.187 C 315.918 355.816,317.186 354.838,318.427 354.014 C 321.193 352.177,327.916 346.615,328.932 345.323 C 329.341 344.803,330.419 343.998,331.327 343.535 C 333.423 342.466,342.786 333.085,343.716 331.123 C 344.101 330.310,344.819 329.320,345.311 328.923 C 346.776 327.740,353.193 319.982,353.987 318.433 C 354.391 317.645,355.207 316.550,355.801 316.000 C 356.394 315.450,357.333 314.109,357.887 313.019 C 358.442 311.930,360.303 309.469,362.023 307.550 C 364.384 304.917,365.299 303.561,365.757 302.021 C 366.090 300.898,367.169 298.949,368.154 297.690 C 369.139 296.430,370.077 294.865,370.238 294.212 C 370.399 293.558,370.842 292.478,371.221 291.812 C 371.601 291.145,372.030 289.921,372.175 289.091 C 372.323 288.246,373.002 286.950,373.720 286.142 C 374.424 285.349,375.584 283.598,376.297 282.250 C 379.510 276.180,380.079 274.765,380.294 272.299 C 380.414 270.925,380.811 269.350,381.176 268.800 C 381.541 268.250,382.437 266.540,383.168 265.000 C 383.898 263.460,384.824 261.564,385.226 260.786 C 385.627 260.008,386.138 258.235,386.362 256.846 C 386.585 255.457,386.935 254.113,387.137 253.860 C 387.679 253.185,388.399 249.446,388.405 247.280 C 388.407 246.246,388.694 244.410,389.041 243.200 C 389.388 241.990,389.922 239.783,390.228 238.296 C 390.534 236.808,391.087 235.008,391.457 234.296 C 391.889 233.464,392.250 231.353,392.465 228.400 C 392.649 225.870,393.003 222.720,393.251 221.400 C 394.048 217.163,394.167 181.600,393.394 178.518 C 393.045 177.124,392.605 173.667,392.417 170.836 C 392.229 168.005,391.898 165.354,391.680 164.944 C 390.832 163.349,388.731 154.415,388.390 150.957 C 388.193 148.953,387.682 146.343,387.256 145.157 C 386.829 143.971,386.371 142.100,386.237 141.000 C 386.103 139.900,385.660 138.547,385.253 137.992 C 384.846 137.438,384.378 136.538,384.215 135.992 C 384.051 135.447,383.656 134.588,383.338 134.084 C 381.550 131.250,380.690 129.127,380.386 126.800 C 379.885 122.958,376.902 116.438,373.922 112.668 C 373.256 111.825,372.474 110.239,372.185 109.143 C 371.896 108.047,371.411 106.756,371.107 106.275 C 370.803 105.794,370.345 104.678,370.090 103.796 C 369.834 102.914,368.914 101.429,368.045 100.497 C 367.159 99.546,366.169 97.912,365.791 96.773 C 365.420 95.657,364.522 94.148,363.794 93.421 C 363.066 92.693,362.175 91.525,361.813 90.825 C 361.451 90.125,360.568 88.888,359.852 88.076 C 359.135 87.264,358.041 85.718,357.422 84.640 C 356.803 83.562,355.374 81.644,354.248 80.377 C 353.122 79.111,351.536 76.987,350.725 75.656 C 349.820 74.173,348.343 72.534,346.904 71.416 C 345.305 70.174,344.389 69.119,344.024 68.098 C 343.326 66.143,341.509 63.856,339.829 62.818 C 339.091 62.362,337.740 60.998,336.826 59.788 C 335.765 58.383,334.355 57.130,332.929 56.325 C 331.700 55.632,329.594 53.950,328.247 52.588 C 326.901 51.226,324.957 49.547,323.927 48.855 C 322.896 48.164,321.665 47.054,321.191 46.388 C 320.718 45.722,319.458 44.736,318.393 44.197 C 317.328 43.657,316.335 43.019,316.187 42.778 C 316.038 42.538,314.720 41.540,313.258 40.561 C 311.796 39.582,309.488 37.903,308.130 36.830 C 306.771 35.757,304.629 34.494,303.370 34.023 C 302.054 33.531,300.212 32.383,299.040 31.324 C 297.068 29.543,294.409 28.027,293.226 28.009 C 292.291 27.994,287.120 25.184,285.524 23.823 C 283.899 22.437,278.419 20.200,275.600 19.771 C 274.610 19.621,271.460 18.332,268.600 16.908 C 261.550 13.397,258.011 12.142,254.188 11.798 C 252.434 11.640,250.067 11.189,248.927 10.795 C 247.786 10.401,246.101 9.952,245.180 9.797 C 244.260 9.641,242.723 9.167,241.764 8.743 C 240.805 8.319,238.801 7.867,237.311 7.739 C 235.820 7.610,233.340 7.134,231.800 6.680 C 228.795 5.795,179.801 5.247,171.000 6.000 M204.480 16.848 C 212.098 18.460,221.607 25.955,226.072 33.865 C 227.504 36.403,227.623 36.462,233.185 37.384 C 238.024 38.186,245.538 40.444,250.413 42.561 C 252.276 43.370,255.536 44.473,257.659 45.012 C 262.081 46.136,264.053 46.934,267.324 48.923 C 268.602 49.701,270.854 50.703,272.329 51.151 C 273.962 51.647,276.571 52.981,279.005 54.565 C 281.202 55.994,284.238 57.847,285.752 58.682 C 287.265 59.517,289.617 61.034,290.977 62.054 C 292.337 63.073,294.197 64.288,295.111 64.755 C 296.025 65.221,298.406 66.997,300.404 68.701 C 302.401 70.405,305.190 72.700,306.602 73.800 C 308.014 74.900,310.615 77.240,312.382 79.000 C 314.149 80.760,315.963 82.560,316.412 83.000 C 319.614 86.132,323.806 90.786,326.373 94.058 C 328.038 96.180,330.523 99.198,331.896 100.764 C 333.269 102.330,334.870 104.554,335.453 105.706 C 336.036 106.858,337.097 108.520,337.810 109.400 C 338.523 110.280,339.649 112.080,340.312 113.400 C 340.974 114.720,342.887 118.025,344.563 120.745 C 346.271 123.517,348.122 127.142,348.776 128.996 C 349.418 130.815,350.782 133.973,351.807 136.014 C 352.915 138.219,354.135 141.525,354.815 144.162 C 355.444 146.603,357.225 152.404,358.772 157.054 C 365.558 177.447,365.774 219.848,359.196 240.245 C 357.878 244.333,356.721 247.804,356.626 247.957 C 356.532 248.111,355.728 250.876,354.840 254.102 C 353.830 257.773,352.558 261.283,351.438 263.484 C 349.769 266.765,347.728 271.836,346.690 275.286 C 346.292 276.606,346.380 277.117,347.484 279.886 C 349.273 284.375,349.233 284.201,349.588 288.935 C 350.497 301.035,348.857 306.337,342.041 313.330 C 338.193 317.279,336.758 318.143,331.000 319.983 C 324.756 321.978,322.402 322.106,313.200 320.949 C 311.588 320.746,311.227 320.862,309.740 322.061 C 308.827 322.798,306.307 324.828,304.140 326.573 C 301.973 328.318,299.369 330.598,298.354 331.640 C 297.339 332.681,295.359 334.113,293.954 334.822 C 292.549 335.531,290.693 336.716,289.828 337.455 C 288.964 338.195,286.444 339.727,284.228 340.860 C 282.013 341.994,278.632 343.957,276.715 345.223 C 274.799 346.489,272.009 347.927,270.515 348.419 C 269.022 348.911,266.034 350.195,263.876 351.272 C 261.357 352.530,257.857 353.808,254.095 354.842 C 250.873 355.729,248.111 356.532,247.957 356.626 C 247.804 356.721,244.333 357.878,240.245 359.196 C 219.875 365.765,177.420 365.549,157.054 358.772 C 152.404 357.225,146.604 355.444,144.164 354.815 C 141.460 354.118,138.181 352.899,135.764 351.693 C 133.584 350.604,130.579 349.311,129.087 348.820 C 127.595 348.328,123.886 346.429,120.844 344.599 C 117.803 342.769,114.343 340.784,113.157 340.188 C 111.971 339.593,110.280 338.522,109.400 337.809 C 108.520 337.096,106.850 336.032,105.688 335.444 C 104.526 334.856,102.186 333.150,100.488 331.654 C 98.790 330.158,95.780 327.704,93.800 326.202 C 91.820 324.699,89.597 322.774,88.860 321.924 C 86.948 319.720,85.498 319.064,83.272 319.398 C 73.770 320.823,63.480 319.085,59.200 315.332 C 58.210 314.464,56.770 313.372,56.000 312.905 C 53.642 311.475,52.562 309.999,50.069 304.800 C 45.446 295.161,45.036 288.646,48.605 281.535 C 51.622 275.525,51.802 272.358,49.366 268.169 C 47.044 264.177,45.962 261.564,44.971 257.561 C 44.449 255.450,43.462 252.480,42.777 250.961 C 39.399 243.462,37.422 235.432,36.606 225.895 C 36.282 222.103,35.834 218.373,35.610 217.607 C 34.108 212.470,34.120 187.586,35.627 180.888 C 35.860 179.850,36.310 176.067,36.626 172.481 C 37.481 162.787,39.299 155.462,42.789 147.642 C 43.634 145.749,44.538 143.150,44.798 141.866 C 45.574 138.036,46.986 134.354,48.691 131.719 C 49.573 130.354,50.506 128.402,50.763 127.380 C 51.440 124.694,54.470 118.924,56.424 116.600 C 57.349 115.500,58.452 113.790,58.875 112.800 C 60.125 109.874,67.175 99.687,70.208 96.422 C 71.753 94.760,73.510 92.554,74.114 91.519 C 74.718 90.484,76.257 88.833,77.535 87.850 C 78.814 86.866,80.465 85.272,81.206 84.307 C 81.947 83.342,83.342 81.947,84.307 81.206 C 85.272 80.465,86.866 78.814,87.850 77.535 C 88.833 76.257,90.484 74.718,91.519 74.114 C 92.554 73.510,94.757 71.753,96.416 70.208 C 99.617 67.228,109.874 60.143,112.834 58.867 C 113.805 58.448,115.500 57.359,116.600 56.446 C 119.056 54.408,123.694 51.962,127.310 50.797 C 128.801 50.317,130.938 49.293,132.060 48.521 C 134.240 47.022,138.073 45.566,141.866 44.798 C 143.150 44.538,145.749 43.634,147.642 42.789 C 153.715 40.078,161.708 37.800,168.000 36.985 C 171.515 36.530,171.769 36.334,173.523 32.728 C 176.124 27.380,181.955 22.093,189.497 18.245 C 192.777 16.571,199.991 15.899,204.480 16.848 M161.400 58.543 C 157.440 59.902,153.992 61.147,153.737 61.308 C 153.482 61.470,150.970 62.233,148.154 63.005 C 144.658 63.963,142.206 64.907,140.418 65.984 C 138.978 66.850,136.141 68.190,134.114 68.961 C 130.074 70.498,129.186 70.997,126.165 73.430 C 125.046 74.331,122.616 75.811,120.765 76.719 C 118.586 77.787,116.277 79.369,114.214 81.207 C 112.462 82.768,110.032 84.578,108.814 85.229 C 106.848 86.281,105.010 87.959,96.484 96.484 C 87.959 105.010,86.281 106.848,85.229 108.814 C 84.578 110.032,82.768 112.462,81.207 114.214 C 79.378 116.268,77.787 118.587,76.731 120.740 C 75.830 122.577,74.127 125.277,72.947 126.740 C 71.381 128.681,70.361 130.536,69.177 133.600 C 68.283 135.910,66.845 138.978,65.980 140.418 C 64.912 142.196,63.960 144.668,63.012 148.129 C 62.244 150.931,61.426 153.578,61.194 154.012 C 54.705 166.136,52.526 191.922,55.365 223.000 C 55.941 229.313,55.993 229.528,59.161 238.800 C 60.927 243.970,62.841 249.820,63.413 251.800 C 64.518 255.623,66.818 260.302,68.258 261.654 C 69.046 262.394,69.702 262.479,75.263 262.555 C 87.327 262.720,95.220 267.076,100.971 276.741 C 105.748 284.770,106.491 295.480,102.796 303.049 C 100.750 307.238,101.966 308.914,111.821 315.496 C 113.812 316.826,116.424 318.812,117.625 319.910 C 118.826 321.007,121.001 322.446,122.459 323.107 C 123.917 323.768,126.165 325.020,127.455 325.890 C 131.237 328.439,133.367 329.582,137.709 331.391 C 139.959 332.328,143.514 333.828,145.610 334.724 C 147.705 335.620,151.665 336.913,154.410 337.597 C 157.154 338.281,161.529 339.558,164.130 340.435 C 166.732 341.311,170.602 342.387,172.730 342.826 C 174.859 343.265,177.590 343.841,178.800 344.105 C 180.339 344.442,186.531 344.584,199.400 344.579 L 217.800 344.572 223.800 343.281 C 227.100 342.570,232.230 341.192,235.200 340.217 C 238.170 339.243,242.576 337.979,244.991 337.408 C 247.574 336.798,251.134 335.567,253.640 334.417 C 255.983 333.342,259.229 331.990,260.855 331.413 C 262.481 330.836,264.471 329.967,265.277 329.482 C 266.083 328.997,268.691 327.418,271.071 325.972 C 273.452 324.527,276.210 322.999,277.200 322.575 C 278.190 322.152,280.103 320.785,281.452 319.538 C 282.800 318.291,284.672 316.786,285.611 316.193 C 287.996 314.688,294.097 310.049,294.700 309.283 C 295.507 308.257,295.285 306.266,293.900 302.105 C 291.961 296.282,291.983 289.619,293.958 283.800 C 296.303 276.893,296.762 276.127,301.093 271.900 C 307.583 265.564,310.932 264.400,322.664 264.400 C 330.614 264.400,329.950 264.723,331.718 260.000 C 332.253 258.570,333.523 255.588,334.538 253.374 C 335.646 250.960,336.864 247.356,337.580 244.374 C 338.237 241.638,339.505 237.240,340.398 234.600 C 341.291 231.960,342.592 227.100,343.291 223.800 L 344.561 217.800 344.574 199.400 C 344.583 186.512,344.442 180.341,344.105 178.800 C 343.841 177.590,343.265 174.859,342.826 172.730 C 342.387 170.602,341.311 166.732,340.435 164.130 C 339.558 161.529,338.281 157.154,337.597 154.410 C 336.913 151.665,335.620 147.705,334.724 145.610 C 333.828 143.514,332.328 139.959,331.391 137.709 C 329.582 133.367,328.439 131.237,325.890 127.455 C 325.020 126.165,323.772 123.925,323.115 122.476 C 322.458 121.028,320.887 118.663,319.623 117.221 C 318.359 115.780,315.992 112.621,314.362 110.202 C 312.307 107.151,309.777 104.170,306.100 100.468 C 303.185 97.533,300.800 94.978,300.800 94.790 C 300.800 94.199,291.939 86.641,288.924 84.660 C 287.342 83.621,284.850 81.685,283.386 80.358 C 281.726 78.853,279.623 77.444,277.802 76.613 C 276.195 75.881,273.945 74.543,272.803 73.640 C 271.660 72.737,268.987 71.175,266.863 70.170 C 264.738 69.165,261.277 67.464,259.171 66.390 C 257.065 65.316,253.735 63.973,251.771 63.404 C 249.807 62.836,243.933 60.916,238.718 59.138 C 227.502 55.313,227.763 55.314,225.832 59.107 C 222.727 65.210,212.553 73.153,205.402 75.057 C 203.035 75.688,195.758 75.754,193.200 75.168 C 186.835 73.711,176.145 65.610,173.778 60.450 C 171.740 56.007,171.905 56.205,170.187 56.136 C 169.152 56.094,166.097 56.931,161.400 58.543 M150.880 114.144 C 158.154 116.404,162.407 121.047,163.576 128.000 C 164.220 131.831,164.829 133.926,165.359 134.129 C 166.240 134.467,171.328 130.402,174.662 126.697 C 175.578 125.679,177.409 124.302,178.740 123.630 C 180.069 122.959,182.983 121.214,185.215 119.751 C 189.894 116.685,193.024 115.554,199.432 114.610 C 201.834 114.256,204.520 113.758,205.400 113.503 C 208.019 112.745,221.595 112.864,225.200 113.676 C 226.850 114.049,229.190 114.469,230.400 114.610 C 238.188 115.520,250.933 122.528,254.906 128.085 C 255.896 129.468,257.453 131.199,258.367 131.930 C 260.406 133.563,261.678 135.533,263.274 139.531 C 263.948 141.219,265.175 143.950,266.002 145.600 C 269.426 152.438,269.574 155.176,269.588 211.723 C 269.602 267.784,269.892 264.225,264.761 271.052 C 260.620 276.562,256.726 278.368,248.935 278.391 C 237.891 278.425,232.365 274.271,228.240 262.835 C 226.545 258.138,226.414 254.759,226.407 215.600 L 226.399 178.600 225.180 171.800 C 223.937 164.873,222.712 159.465,221.944 157.516 C 221.178 155.575,214.698 150.120,212.307 149.404 C 203.659 146.814,189.852 148.202,185.039 152.147 C 184.094 152.921,182.218 154.200,180.870 154.991 C 179.056 156.054,178.137 156.919,177.341 158.314 C 176.748 159.351,175.317 161.460,174.159 163.000 C 170.353 168.061,169.776 169.544,169.242 175.634 C 168.983 178.585,168.674 181.540,168.556 182.200 C 168.438 182.860,168.207 200.410,168.042 221.200 L 167.742 259.000 166.727 262.056 C 163.474 271.857,159.621 275.945,152.063 277.617 C 142.579 279.714,134.611 277.682,130.643 272.154 C 129.519 270.589,128.021 268.545,127.313 267.612 C 123.549 262.652,123.615 263.940,123.607 194.790 C 123.599 125.290,123.445 128.303,127.297 122.518 C 131.439 116.298,133.287 115.056,141.400 113.041 C 143.003 112.643,147.875 113.209,150.880 114.144 " stroke="none" fill="#045c0c" fill-rule="evenodd"></path><path id="path2" d="M193.097 17.025 C 190.202 17.726,189.243 18.220,183.746 21.837 C 178.386 25.364,175.726 28.198,173.523 32.728 C 171.769 36.334,171.515 36.530,168.000 36.985 C 161.708 37.800,153.715 40.078,147.642 42.789 C 145.749 43.634,143.150 44.538,141.866 44.798 C 138.073 45.566,134.240 47.022,132.060 48.521 C 130.938 49.293,128.801 50.317,127.310 50.797 C 123.694 51.962,119.056 54.408,116.600 56.446 C 115.500 57.359,113.805 58.448,112.834 58.867 C 109.874 60.143,99.617 67.228,96.416 70.208 C 94.757 71.753,92.554 73.510,91.519 74.114 C 90.484 74.718,88.833 76.257,87.850 77.535 C 86.866 78.814,85.272 80.465,84.307 81.206 C 83.342 81.947,81.947 83.342,81.206 84.307 C 80.465 85.272,78.814 86.866,77.535 87.850 C 76.257 88.833,74.718 90.484,74.114 91.519 C 73.510 92.554,71.753 94.760,70.208 96.422 C 67.175 99.687,60.125 109.874,58.875 112.800 C 58.452 113.790,57.349 115.500,56.424 116.600 C 54.470 118.924,51.440 124.694,50.763 127.380 C 50.506 128.402,49.573 130.354,48.691 131.719 C 46.986 134.354,45.574 138.036,44.798 141.866 C 44.538 143.150,43.634 145.749,42.789 147.642 C 39.299 155.462,37.481 162.787,36.626 172.481 C 36.310 176.067,35.860 179.850,35.627 180.888 C 34.120 187.586,34.108 212.470,35.610 217.607 C 35.834 218.373,36.282 222.103,36.606 225.895 C 37.422 235.432,39.399 243.462,42.777 250.961 C 43.462 252.480,44.449 255.450,44.971 257.561 C 45.962 261.564,47.044 264.177,49.366 268.169 C 51.802 272.358,51.622 275.525,48.605 281.535 C 45.036 288.646,45.446 295.161,50.069 304.800 C 52.562 309.999,53.642 311.475,56.000 312.905 C 56.770 313.372,58.210 314.464,59.200 315.332 C 63.480 319.085,73.770 320.823,83.272 319.398 C 85.498 319.064,86.948 319.720,88.860 321.924 C 89.597 322.774,91.820 324.699,93.800 326.202 C 95.780 327.704,98.790 330.158,100.488 331.654 C 102.186 333.150,104.526 334.856,105.688 335.444 C 106.850 336.032,108.520 337.096,109.400 337.809 C 110.280 338.522,111.971 339.593,113.157 340.188 C 114.343 340.784,117.803 342.769,120.844 344.599 C 123.886 346.429,127.595 348.328,129.087 348.820 C 130.579 349.311,133.584 350.604,135.764 351.693 C 138.181 352.899,141.460 354.118,144.164 354.815 C 146.604 355.444,152.404 357.225,157.054 358.772 C 177.420 365.549,219.875 365.765,240.245 359.196 C 244.333 357.878,247.804 356.721,247.957 356.626 C 248.111 356.532,250.873 355.729,254.095 354.842 C 257.857 353.808,261.357 352.530,263.876 351.272 C 266.034 350.195,269.022 348.911,270.515 348.419 C 272.009 347.927,274.799 346.489,276.715 345.223 C 278.632 343.957,282.013 341.994,284.228 340.860 C 286.444 339.727,288.964 338.195,289.828 337.455 C 290.693 336.716,292.549 335.531,293.954 334.822 C 295.359 334.113,297.339 332.681,298.354 331.640 C 299.369 330.598,301.973 328.318,304.140 326.573 C 306.307 324.828,308.827 322.798,309.740 322.061 C 311.227 320.862,311.588 320.746,313.200 320.949 C 322.402 322.106,324.756 321.978,331.000 319.983 C 336.758 318.143,338.193 317.279,342.041 313.330 C 348.857 306.337,350.497 301.035,349.588 288.935 C 349.233 284.201,349.273 284.375,347.484 279.886 C 346.380 277.117,346.292 276.606,346.690 275.286 C 347.728 271.836,349.769 266.765,351.438 263.484 C 352.558 261.283,353.830 257.773,354.840 254.102 C 355.728 250.876,356.532 248.111,356.626 247.957 C 356.721 247.804,357.878 244.333,359.196 240.245 C 365.774 219.848,365.558 177.447,358.772 157.054 C 357.225 152.404,355.444 146.603,354.815 144.162 C 354.135 141.525,352.915 138.219,351.807 136.014 C 350.782 133.973,349.418 130.815,348.776 128.996 C 348.122 127.142,346.271 123.517,344.563 120.745 C 342.887 118.025,340.974 114.720,340.312 113.400 C 339.649 112.080,338.523 110.280,337.810 109.400 C 337.097 108.520,336.036 106.858,335.453 105.706 C 334.870 104.554,333.269 102.330,331.896 100.764 C 330.523 99.198,328.038 96.180,326.373 94.058 C 323.806 90.786,319.614 86.132,316.412 83.000 C 315.963 82.560,314.149 80.760,312.382 79.000 C 310.615 77.240,308.014 74.900,306.602 73.800 C 305.190 72.700,302.401 70.405,300.404 68.701 C 298.406 66.997,296.025 65.221,295.111 64.755 C 294.197 64.288,292.337 63.073,290.977 62.054 C 289.617 61.034,287.265 59.517,285.752 58.682 C 284.238 57.847,281.202 55.994,279.005 54.565 C 276.571 52.981,273.962 51.647,272.329 51.151 C 270.854 50.703,268.602 49.701,267.324 48.923 C 264.053 46.934,262.081 46.136,257.659 45.012 C 255.536 44.473,252.276 43.370,250.413 42.561 C 245.538 40.444,238.024 38.186,233.185 37.384 C 227.623 36.462,227.504 36.403,226.072 33.865 C 218.978 21.295,204.978 14.146,193.097 17.025 M206.368 18.806 C 212.959 20.912,221.401 28.084,224.804 34.468 C 226.426 37.512,226.982 37.831,232.000 38.596 C 237.058 39.368,244.421 41.503,249.600 43.698 C 251.690 44.584,255.324 45.816,257.676 46.434 C 261.931 47.554,264.098 48.459,266.800 50.247 C 267.580 50.763,269.547 51.638,271.173 52.191 C 274.492 53.320,277.459 54.891,281.000 57.395 C 282.320 58.328,284.489 59.641,285.821 60.312 C 287.152 60.983,289.152 62.251,290.264 63.131 C 291.377 64.010,293.299 65.300,294.534 65.998 C 295.770 66.695,298.180 68.512,299.891 70.035 C 301.601 71.559,304.080 73.625,305.400 74.628 C 306.720 75.631,309.289 77.925,311.109 79.725 C 319.762 88.287,322.945 91.679,325.258 94.800 C 326.481 96.450,328.698 99.149,330.183 100.797 C 331.669 102.446,333.339 104.696,333.893 105.797 C 334.447 106.899,335.699 108.868,336.675 110.173 C 337.652 111.478,338.949 113.548,339.560 114.773 C 340.170 115.998,341.973 119.127,343.567 121.727 C 345.162 124.327,346.883 127.657,347.392 129.127 C 347.901 130.597,349.225 133.690,350.333 136.000 C 351.444 138.313,352.803 141.997,353.359 144.200 C 353.914 146.400,354.745 149.280,355.206 150.600 C 361.596 168.923,362.178 172.979,362.181 199.200 C 362.183 223.585,361.635 228.421,357.426 241.200 C 355.796 246.150,353.933 252.180,353.286 254.600 C 352.639 257.020,351.338 260.530,350.395 262.400 C 349.452 264.270,347.974 267.690,347.110 270.000 C 344.464 277.081,344.552 276.190,346.127 280.004 C 349.253 287.576,349.289 299.165,346.207 305.897 C 344.846 308.870,338.248 315.638,335.413 316.969 C 328.908 320.024,320.585 321.159,314.993 319.754 C 311.649 318.914,310.974 319.127,307.506 322.119 C 305.908 323.498,303.790 325.239,302.800 325.988 C 301.810 326.738,299.827 328.463,298.394 329.822 C 296.961 331.181,294.701 332.842,293.372 333.513 C 292.044 334.184,290.163 335.395,289.194 336.205 C 288.225 337.014,285.701 338.546,283.585 339.607 C 281.469 340.669,278.262 342.549,276.459 343.784 C 274.445 345.163,271.832 346.505,269.690 347.261 C 267.770 347.939,264.580 349.309,262.600 350.306 C 260.536 351.345,256.951 352.672,254.200 353.415 C 251.560 354.128,245.530 355.988,240.800 357.549 C 228.496 361.609,223.420 362.174,199.200 362.178 C 173.433 362.183,167.699 361.376,151.229 355.425 C 150.255 355.073,147.148 354.159,144.325 353.395 C 141.240 352.559,137.717 351.262,135.496 350.146 C 133.463 349.124,130.581 347.872,129.092 347.365 C 127.602 346.857,124.085 345.018,121.275 343.276 C 118.465 341.535,115.364 339.752,114.383 339.313 C 113.402 338.874,111.520 337.702,110.200 336.708 C 108.880 335.714,106.900 334.441,105.800 333.879 C 104.700 333.317,102.450 331.648,100.800 330.171 C 99.150 328.693,96.244 326.337,94.342 324.935 C 92.440 323.533,90.403 321.755,89.815 320.985 C 87.700 318.211,87.652 318.200,77.417 318.200 C 67.106 318.200,65.165 317.860,61.832 315.473 C 53.932 309.814,53.909 309.789,51.381 304.471 C 46.581 294.374,46.349 289.595,50.248 281.147 C 53.517 274.064,53.377 272.369,48.865 264.357 C 48.170 263.123,47.086 260.153,46.456 257.757 C 45.825 255.361,44.587 251.690,43.703 249.600 C 40.342 241.649,38.852 235.516,38.016 226.200 C 37.759 223.340,37.297 219.501,36.989 217.668 C 35.471 208.638,35.376 189.909,36.810 182.346 C 37.022 181.229,37.474 177.499,37.815 174.058 C 38.949 162.604,40.324 156.759,43.796 148.632 C 44.782 146.322,45.780 143.570,46.013 142.516 C 46.967 138.207,48.090 135.158,49.460 133.168 C 50.255 132.011,51.444 129.520,52.100 127.632 C 53.671 123.118,54.755 121.028,57.143 117.913 C 58.228 116.497,59.608 114.362,60.208 113.169 C 62.117 109.374,68.411 100.293,70.998 97.600 C 72.372 96.170,74.238 93.887,75.144 92.528 C 76.051 91.168,77.624 89.458,78.641 88.728 C 79.659 87.997,81.180 86.535,82.022 85.477 C 82.864 84.419,84.419 82.864,85.477 82.022 C 86.535 81.180,87.999 79.656,88.731 78.636 C 89.463 77.617,91.353 75.904,92.931 74.830 C 94.509 73.757,96.610 72.032,97.600 70.997 C 99.505 69.006,109.562 62.044,113.188 60.206 C 114.370 59.607,116.473 58.246,117.861 57.182 C 120.687 55.016,124.092 53.284,128.364 51.839 C 129.944 51.304,131.813 50.429,132.518 49.893 C 134.626 48.290,136.084 47.685,140.855 46.433 C 143.355 45.776,147.075 44.510,149.122 43.619 C 154.161 41.425,161.257 39.414,166.808 38.607 C 172.496 37.779,172.664 37.670,174.724 33.416 C 177.289 28.118,182.425 23.436,189.727 19.735 C 194.275 17.431,200.905 17.061,206.368 18.806 M168.200 55.001 C 167.100 55.311,163.230 56.580,159.600 57.820 C 155.970 59.061,150.480 60.839,147.400 61.772 C 143.946 62.819,140.899 64.025,139.450 64.919 C 138.157 65.716,135.817 66.852,134.250 67.443 C 130.004 69.045,127.894 70.187,125.743 72.049 C 124.678 72.971,122.365 74.392,120.603 75.207 C 118.507 76.175,116.274 77.664,114.143 79.513 C 112.352 81.067,109.677 83.074,108.198 83.972 C 105.571 85.568,103.292 87.552,98.978 92.000 C 96.109 94.958,94.612 96.450,92.000 98.952 C 87.724 103.049,85.653 105.431,84.005 108.143 C 83.089 109.652,81.067 112.352,79.513 114.143 C 77.706 116.226,76.145 118.554,75.184 120.600 C 74.357 122.360,72.924 124.696,72.000 125.792 C 70.123 128.017,69.027 130.052,67.443 134.250 C 66.852 135.817,65.716 138.157,64.919 139.450 C 64.029 140.893,62.812 143.962,61.766 147.400 C 60.830 150.480,58.871 156.510,57.412 160.800 C 53.648 171.876,53.046 177.165,53.046 199.200 C 53.046 222.491,53.547 226.534,58.118 240.114 C 59.986 245.661,62.003 251.770,62.601 253.689 C 63.691 257.189,66.692 262.651,67.936 263.400 C 68.301 263.620,71.300 263.802,74.600 263.805 C 87.662 263.815,95.981 268.982,101.374 280.436 C 104.395 286.851,104.403 296.560,101.392 302.600 C 100.023 305.347,99.762 306.514,100.239 307.757 C 100.599 308.695,106.518 313.556,110.713 316.358 C 112.755 317.722,115.560 319.865,116.946 321.119 C 118.502 322.528,120.248 323.680,121.514 324.134 C 122.641 324.537,124.541 325.552,125.737 326.390 C 129.287 328.876,133.614 331.282,136.600 332.430 C 138.140 333.022,141.496 334.422,144.058 335.541 C 146.620 336.660,150.670 338.052,153.058 338.635 C 155.446 339.217,160.100 340.568,163.400 341.636 C 183.486 348.137,215.911 348.134,235.161 341.629 C 237.733 340.760,242.169 339.492,245.019 338.812 C 248.214 338.049,251.656 336.897,254.000 335.806 C 256.090 334.833,259.510 333.388,261.600 332.594 C 263.690 331.801,267.110 330.042,269.200 328.685 C 271.290 327.329,274.704 325.360,276.787 324.310 C 279.067 323.161,281.374 321.628,282.587 320.456 C 283.694 319.387,285.500 317.910,286.600 317.175 C 297.465 309.913,297.700 309.505,295.300 302.056 C 293.142 295.359,293.161 290.660,295.370 284.000 C 297.496 277.590,297.798 277.104,302.459 272.579 C 308.686 266.533,312.550 265.285,323.668 265.731 C 330.716 266.013,330.882 265.935,332.579 261.530 C 333.201 259.918,334.579 256.707,335.642 254.393 C 336.873 251.715,338.026 248.305,338.813 245.011 C 339.493 242.165,340.760 237.733,341.629 235.161 C 348.143 215.884,348.140 183.678,341.622 163.400 C 340.562 160.100,339.220 155.458,338.641 153.084 C 336.916 146.008,331.235 133.015,327.292 127.127 C 326.133 125.396,324.783 122.976,324.292 121.750 C 323.778 120.467,322.404 118.392,321.052 116.860 C 319.760 115.397,317.489 112.400,316.004 110.200 C 312.985 105.726,307.979 99.835,305.757 98.140 C 304.952 97.526,303.455 95.987,302.430 94.720 C 300.084 91.822,293.812 86.284,290.117 83.850 C 288.568 82.829,285.916 80.758,284.224 79.247 C 282.195 77.435,280.341 76.179,278.777 75.558 C 277.473 75.040,275.110 73.660,273.526 72.492 C 271.942 71.324,269.286 69.724,267.623 68.937 C 265.960 68.151,262.440 66.457,259.800 65.174 C 257.160 63.891,253.637 62.470,251.972 62.016 C 250.306 61.562,244.744 59.753,239.611 57.995 C 227.614 53.887,226.719 53.875,224.987 57.792 C 221.521 65.627,209.291 73.890,200.528 74.315 C 190.527 74.800,177.454 66.863,174.383 58.441 C 173.028 54.726,171.731 54.004,168.200 55.001 M172.260 57.200 C 172.527 57.750,173.210 59.213,173.778 60.450 C 176.145 65.610,186.835 73.711,193.200 75.168 C 195.758 75.754,203.035 75.688,205.402 75.057 C 212.553 73.153,222.727 65.210,225.832 59.107 C 227.763 55.314,227.502 55.313,238.718 59.138 C 243.933 60.916,249.807 62.836,251.771 63.404 C 253.735 63.973,257.065 65.316,259.171 66.390 C 261.277 67.464,264.738 69.165,266.863 70.170 C 268.987 71.175,271.660 72.737,272.803 73.640 C 273.945 74.543,276.195 75.881,277.802 76.613 C 279.623 77.444,281.726 78.853,283.386 80.358 C 284.850 81.685,287.342 83.621,288.924 84.660 C 291.939 86.641,300.800 94.199,300.800 94.790 C 300.800 94.978,303.185 97.533,306.100 100.468 C 309.777 104.170,312.307 107.151,314.362 110.202 C 315.992 112.621,318.359 115.780,319.623 117.221 C 320.887 118.663,322.458 121.028,323.115 122.476 C 323.772 123.925,325.020 126.165,325.890 127.455 C 328.439 131.237,329.582 133.367,331.391 137.709 C 332.328 139.959,333.828 143.514,334.724 145.610 C 335.620 147.705,336.913 151.665,337.597 154.410 C 338.281 157.154,339.558 161.529,340.435 164.130 C 341.311 166.732,342.387 170.602,342.826 172.730 C 343.265 174.859,343.841 177.590,344.105 178.800 C 344.442 180.341,344.583 186.512,344.574 199.400 L 344.561 217.800 343.291 223.800 C 342.592 227.100,341.291 231.960,340.398 234.600 C 339.505 237.240,338.237 241.638,337.580 244.374 C 336.864 247.356,335.646 250.960,334.538 253.374 C 333.523 255.588,332.253 258.570,331.718 260.000 C 329.950 264.723,330.614 264.400,322.664 264.400 C 310.932 264.400,307.583 265.564,301.093 271.900 C 296.762 276.127,296.303 276.893,293.958 283.800 C 291.983 289.619,291.961 296.282,293.900 302.105 C 295.285 306.266,295.507 308.257,294.700 309.283 C 294.097 310.049,287.996 314.688,285.611 316.193 C 284.672 316.786,282.800 318.291,281.452 319.538 C 280.103 320.785,278.190 322.152,277.200 322.575 C 276.210 322.999,273.452 324.527,271.071 325.972 C 268.691 327.418,266.083 328.997,265.277 329.482 C 264.471 329.967,262.481 330.836,260.855 331.413 C 259.229 331.990,255.983 333.342,253.640 334.417 C 251.134 335.567,247.574 336.798,244.991 337.408 C 242.576 337.979,238.170 339.243,235.200 340.217 C 232.230 341.192,227.100 342.570,223.800 343.281 L 217.800 344.572 199.400 344.579 C 186.531 344.584,180.339 344.442,178.800 344.105 C 177.590 343.841,174.859 343.265,172.730 342.826 C 170.602 342.387,166.732 341.311,164.130 340.435 C 161.529 339.558,157.154 338.281,154.410 337.597 C 151.665 336.913,147.705 335.620,145.610 334.724 C 143.514 333.828,139.959 332.328,137.709 331.391 C 133.367 329.582,131.237 328.439,127.455 325.890 C 126.165 325.020,123.917 323.768,122.459 323.107 C 121.001 322.446,118.826 321.007,117.625 319.910 C 116.424 318.812,113.812 316.826,111.821 315.496 C 101.966 308.914,100.750 307.238,102.796 303.049 C 106.491 295.480,105.748 284.770,100.971 276.741 C 95.220 267.076,87.327 262.720,75.263 262.555 C 69.702 262.479,69.046 262.394,68.258 261.654 C 66.818 260.302,64.518 255.623,63.413 251.800 C 62.841 249.820,60.927 243.970,59.161 238.800 C 55.993 229.528,55.941 229.313,55.365 223.000 C 53.564 203.278,53.564 195.321,55.366 175.600 C 55.905 169.700,59.068 157.984,61.194 154.012 C 61.426 153.578,62.244 150.931,63.012 148.129 C 63.960 144.668,64.912 142.196,65.980 140.418 C 66.845 138.978,68.283 135.910,69.177 133.600 C 70.361 130.536,71.381 128.681,72.947 126.740 C 74.127 125.277,75.830 122.577,76.731 120.740 C 77.787 118.587,79.378 116.268,81.207 114.214 C 82.768 112.462,84.578 110.032,85.229 108.814 C 86.281 106.848,87.959 105.010,96.484 96.484 C 105.010 87.959,106.848 86.281,108.814 85.229 C 110.032 84.578,112.462 82.768,114.214 81.207 C 116.277 79.369,118.586 77.787,120.765 76.719 C 122.616 75.811,125.046 74.331,126.165 73.430 C 129.186 70.997,130.074 70.498,134.114 68.961 C 136.141 68.190,138.978 66.850,140.418 65.984 C 142.206 64.907,144.658 63.963,148.154 63.005 C 150.970 62.233,153.482 61.470,153.737 61.308 C 153.992 61.147,157.440 59.902,161.400 58.543 C 169.490 55.766,171.446 55.524,172.260 57.200 M141.400 113.041 C 133.287 115.056,131.439 116.298,127.297 122.518 C 123.445 128.303,123.599 125.290,123.607 194.790 C 123.615 263.940,123.549 262.652,127.313 267.612 C 128.021 268.545,129.519 270.589,130.643 272.154 C 134.611 277.682,142.579 279.714,152.063 277.617 C 159.621 275.945,163.474 271.857,166.727 262.056 L 167.742 259.000 168.042 221.200 C 168.207 200.410,168.438 182.860,168.556 182.200 C 168.674 181.540,168.983 178.585,169.242 175.634 C 169.776 169.544,170.353 168.061,174.159 163.000 C 175.317 161.460,176.748 159.351,177.341 158.314 C 178.137 156.919,179.056 156.054,180.870 154.991 C 182.218 154.200,184.094 152.921,185.039 152.147 C 189.852 148.202,203.659 146.814,212.307 149.404 C 214.698 150.120,221.178 155.575,221.944 157.516 C 222.712 159.465,223.937 164.873,225.180 171.800 L 226.399 178.600 226.407 215.600 C 226.414 254.759,226.545 258.138,228.240 262.835 C 232.365 274.271,237.891 278.425,248.935 278.391 C 256.726 278.368,260.620 276.562,264.761 271.052 C 269.892 264.225,269.602 267.784,269.588 211.723 C 269.574 155.176,269.426 152.438,266.002 145.600 C 265.175 143.950,263.948 141.219,263.274 139.531 C 261.678 135.533,260.406 133.563,258.367 131.930 C 257.453 131.199,255.896 129.468,254.906 128.085 C 250.933 122.528,238.188 115.520,230.400 114.610 C 229.190 114.469,226.850 114.049,225.200 113.676 C 221.595 112.864,208.019 112.745,205.400 113.503 C 204.520 113.758,201.834 114.256,199.432 114.610 C 193.024 115.554,189.894 116.685,185.215 119.751 C 182.983 121.214,180.069 122.959,178.740 123.630 C 177.409 124.302,175.578 125.679,174.662 126.697 C 171.328 130.402,166.240 134.467,165.359 134.129 C 164.829 133.926,164.220 131.831,163.576 128.000 C 161.995 118.596,150.434 110.797,141.400 113.041 M149.543 115.211 C 157.918 117.532,161.142 121.354,162.753 130.875 C 163.558 135.630,164.082 137.200,164.865 137.200 C 165.385 137.200,169.686 133.402,174.004 129.130 C 175.722 127.431,178.066 125.575,179.254 124.974 C 180.434 124.376,182.660 123.038,184.200 122.001 C 190.669 117.644,192.361 117.065,204.042 115.210 C 215.938 113.321,233.290 115.177,240.375 119.097 C 246.705 122.599,251.974 126.399,253.654 128.673 C 254.565 129.906,256.423 132.013,257.785 133.357 C 259.782 135.328,260.510 136.419,261.553 139.000 C 262.263 140.760,263.640 143.820,264.613 145.800 C 268.106 152.912,268.383 157.873,268.389 213.400 C 268.395 265.504,268.526 263.916,263.709 270.194 C 260.369 274.546,259.709 275.043,255.978 276.016 C 244.422 279.030,236.232 276.120,231.731 267.400 C 227.698 259.585,227.615 258.503,227.603 213.600 C 227.597 191.211,227.441 176.826,227.185 175.200 C 224.494 158.101,223.311 155.384,216.087 149.716 C 211.457 146.083,194.311 145.786,187.400 149.219 C 181.993 151.906,177.578 155.380,175.566 158.534 C 174.535 160.151,173.029 162.341,172.220 163.402 C 167.233 169.934,166.840 174.114,166.435 224.800 L 166.156 259.800 165.070 262.672 C 163.466 266.910,160.596 271.770,158.778 273.326 C 153.164 278.131,138.017 278.212,133.563 273.461 C 131.243 270.987,127.223 265.111,126.319 262.874 L 125.400 260.600 125.287 196.600 C 125.163 126.557,125.089 128.921,127.527 124.800 C 132.938 115.654,140.017 112.571,149.543 115.211 " stroke="none" fill="#528f58" fill-rule="evenodd"></path><path id="path3" d="M194.161 18.172 C 186.825 19.835,177.917 26.822,174.724 33.416 C 172.664 37.670,172.496 37.779,166.808 38.607 C 161.257 39.414,154.161 41.425,149.122 43.619 C 147.075 44.510,143.355 45.776,140.855 46.433 C 136.084 47.685,134.626 48.290,132.518 49.893 C 131.813 50.429,129.944 51.304,128.364 51.839 C 124.092 53.284,120.687 55.016,117.861 57.182 C 116.473 58.246,114.370 59.607,113.188 60.206 C 109.562 62.044,99.505 69.006,97.600 70.997 C 96.610 72.032,94.509 73.757,92.931 74.830 C 91.353 75.904,89.463 77.617,88.731 78.636 C 87.999 79.656,86.535 81.180,85.477 82.022 C 84.419 82.864,82.864 84.419,82.022 85.477 C 81.180 86.535,79.659 87.997,78.641 88.728 C 77.624 89.458,76.051 91.168,75.144 92.528 C 74.238 93.887,72.372 96.170,70.998 97.600 C 68.411 100.293,62.117 109.374,60.208 113.169 C 59.608 114.362,58.228 116.497,57.143 117.913 C 54.755 121.028,53.671 123.118,52.100 127.632 C 51.444 129.520,50.255 132.011,49.460 133.168 C 48.090 135.158,46.967 138.207,46.013 142.516 C 45.780 143.570,44.782 146.322,43.796 148.632 C 40.324 156.759,38.949 162.604,37.815 174.058 C 37.474 177.499,37.022 181.229,36.810 182.346 C 35.376 189.909,35.471 208.638,36.989 217.668 C 37.297 219.501,37.759 223.340,38.016 226.200 C 38.852 235.516,40.342 241.649,43.703 249.600 C 44.587 251.690,45.825 255.361,46.456 257.757 C 47.086 260.153,48.170 263.123,48.865 264.357 C 53.377 272.369,53.517 274.064,50.248 281.147 C 46.349 289.595,46.581 294.374,51.381 304.471 C 53.909 309.789,53.932 309.814,61.832 315.473 C 65.165 317.860,67.106 318.200,77.417 318.200 C 87.652 318.200,87.700 318.211,89.815 320.985 C 90.403 321.755,92.440 323.533,94.342 324.935 C 96.244 326.337,99.150 328.693,100.800 330.171 C 102.450 331.648,104.700 333.317,105.800 333.879 C 106.900 334.441,108.880 335.714,110.200 336.708 C 111.520 337.702,113.402 338.874,114.383 339.313 C 115.364 339.752,118.465 341.535,121.275 343.276 C 124.085 345.018,127.602 346.857,129.092 347.365 C 130.581 347.872,133.463 349.124,135.496 350.146 C 137.717 351.262,141.240 352.559,144.325 353.395 C 147.148 354.159,150.255 355.073,151.229 355.425 C 167.699 361.376,173.433 362.183,199.200 362.178 C 223.420 362.174,228.496 361.609,240.800 357.549 C 245.530 355.988,251.560 354.128,254.200 353.415 C 256.951 352.672,260.536 351.345,262.600 350.306 C 264.580 349.309,267.770 347.939,269.690 347.261 C 271.832 346.505,274.445 345.163,276.459 343.784 C 278.262 342.549,281.469 340.669,283.585 339.607 C 285.701 338.546,288.225 337.014,289.194 336.205 C 290.163 335.395,292.044 334.184,293.372 333.513 C 294.701 332.842,296.961 331.181,298.394 329.822 C 299.827 328.463,301.810 326.738,302.800 325.988 C 303.790 325.239,305.908 323.498,307.506 322.119 C 310.974 319.127,311.649 318.914,314.993 319.754 C 328.861 323.238,345.048 313.954,347.807 300.934 C 349.171 294.495,348.462 285.660,346.127 280.004 C 344.552 276.190,344.464 277.081,347.110 270.000 C 347.974 267.690,349.452 264.270,350.395 262.400 C 351.338 260.530,352.639 257.020,353.286 254.600 C 353.933 252.180,355.796 246.150,357.426 241.200 C 361.635 228.421,362.183 223.585,362.181 199.200 C 362.178 172.979,361.596 168.923,355.206 150.600 C 354.745 149.280,353.914 146.400,353.359 144.200 C 352.803 141.997,351.444 138.313,350.333 136.000 C 349.225 133.690,347.901 130.597,347.392 129.127 C 346.883 127.657,345.162 124.327,343.567 121.727 C 341.973 119.127,340.170 115.998,339.560 114.773 C 338.949 113.548,337.652 111.478,336.675 110.173 C 335.699 108.868,334.447 106.899,333.893 105.797 C 333.339 104.696,331.669 102.446,330.183 100.797 C 328.698 99.149,326.481 96.450,325.258 94.800 C 322.945 91.679,319.762 88.287,311.109 79.725 C 309.289 77.925,306.720 75.631,305.400 74.628 C 304.080 73.625,301.601 71.559,299.891 70.035 C 298.180 68.512,295.770 66.695,294.534 65.998 C 293.299 65.300,291.377 64.010,290.264 63.131 C 289.152 62.251,287.152 60.983,285.821 60.312 C 284.489 59.641,282.320 58.328,281.000 57.395 C 277.459 54.891,274.492 53.320,271.173 52.191 C 269.547 51.638,267.580 50.763,266.800 50.247 C 264.098 48.459,261.931 47.554,257.676 46.434 C 255.324 45.816,251.690 44.584,249.600 43.698 C 244.421 41.503,237.058 39.368,232.000 38.596 C 226.982 37.831,226.426 37.512,224.804 34.468 C 218.747 23.103,204.896 15.737,194.161 18.172 M206.010 19.154 C 212.746 21.278,221.289 28.622,224.551 35.093 C 225.971 37.909,226.737 38.315,232.257 39.174 C 237.581 40.002,244.512 42.009,249.600 44.196 C 251.470 44.999,254.980 46.195,257.400 46.852 C 260.260 47.630,263.200 48.793,265.800 50.175 C 268.000 51.345,270.520 52.528,271.400 52.805 C 273.842 53.574,276.652 55.069,280.451 57.620 C 282.349 58.894,284.869 60.425,286.051 61.021 C 287.233 61.617,288.903 62.666,289.763 63.352 C 290.623 64.039,292.637 65.410,294.238 66.400 C 295.839 67.390,298.826 69.672,300.875 71.472 C 302.924 73.271,305.331 75.273,306.225 75.920 C 307.118 76.567,309.859 79.144,312.315 81.648 C 314.771 84.152,318.199 87.640,319.934 89.400 C 321.669 91.160,323.867 93.680,324.818 95.000 C 325.769 96.320,327.831 98.850,329.400 100.622 C 330.969 102.394,332.860 104.914,333.602 106.222 C 334.344 107.530,335.618 109.500,336.432 110.600 C 337.247 111.700,338.454 113.680,339.114 115.000 C 339.775 116.320,341.593 119.464,343.155 121.987 C 344.716 124.510,346.281 127.480,346.631 128.587 C 346.982 129.694,348.327 132.850,349.620 135.600 C 351.078 138.701,352.431 142.380,353.183 145.286 C 353.850 147.863,354.663 150.653,354.991 151.486 C 360.488 165.464,361.765 174.471,361.760 199.200 C 361.755 222.788,361.122 228.365,357.037 240.800 C 355.411 245.750,353.513 251.954,352.820 254.587 C 352.021 257.622,350.971 260.441,349.950 262.290 C 348.474 264.964,345.761 271.660,344.681 275.295 C 344.298 276.586,344.363 277.078,345.160 278.895 C 348.850 287.309,349.055 298.543,345.651 305.817 C 344.161 309.001,337.822 315.325,334.726 316.717 C 328.300 319.606,320.464 320.706,315.600 319.400 C 312.231 318.496,311.080 318.623,309.263 320.100 C 308.383 320.815,306.077 322.660,304.139 324.200 C 302.200 325.740,299.441 328.104,298.007 329.453 C 296.573 330.802,294.489 332.363,293.376 332.921 C 292.263 333.479,290.419 334.674,289.278 335.576 C 288.137 336.478,285.290 338.206,282.953 339.415 C 280.615 340.625,277.438 342.505,275.893 343.594 C 274.200 344.787,271.837 345.988,269.948 346.617 C 268.223 347.192,265.069 348.557,262.939 349.651 C 260.468 350.921,257.391 352.082,254.436 352.860 C 251.889 353.530,245.783 355.407,240.866 357.031 C 228.504 361.114,222.831 361.757,199.200 361.756 C 173.584 361.755,169.539 361.173,150.800 354.794 C 148.930 354.157,145.825 353.270,143.901 352.822 C 141.740 352.319,138.758 351.187,136.101 349.861 C 133.735 348.680,130.624 347.326,129.186 346.853 C 127.748 346.379,124.508 344.715,121.986 343.154 C 119.464 341.593,116.320 339.775,115.000 339.114 C 113.680 338.454,111.700 337.244,110.600 336.427 C 109.500 335.610,107.447 334.269,106.037 333.447 C 104.628 332.624,102.108 330.731,100.437 329.240 C 98.767 327.748,96.033 325.528,94.362 324.307 C 92.691 323.085,90.650 321.264,89.827 320.259 C 87.812 317.800,87.835 317.805,77.800 317.802 C 67.924 317.800,64.858 317.282,62.088 315.152 C 61.270 314.522,59.218 313.009,57.528 311.790 C 54.489 309.596,54.431 309.521,52.076 304.686 C 47.032 294.333,46.763 290.004,50.637 281.500 C 53.640 274.910,53.739 271.282,51.032 267.180 C 49.203 264.410,47.962 261.528,46.943 257.689 C 46.376 255.550,45.225 252.147,44.387 250.128 C 40.907 241.748,39.517 236.214,38.593 227.057 C 38.257 223.726,37.725 219.290,37.412 217.200 C 35.805 206.477,35.800 192.725,37.400 181.600 C 37.700 179.510,38.152 175.640,38.404 173.000 C 39.323 163.363,41.291 155.230,44.260 148.800 C 45.022 147.150,46.182 143.750,46.839 141.244 C 48.112 136.382,48.194 136.177,50.236 132.800 C 50.967 131.590,52.046 129.250,52.633 127.600 C 54.123 123.410,55.606 120.595,57.793 117.800 C 58.826 116.480,60.215 114.330,60.880 113.022 C 62.946 108.962,69.139 100.055,71.554 97.672 C 72.820 96.422,74.514 94.368,75.318 93.107 C 76.123 91.846,77.821 90.003,79.091 89.012 C 80.361 88.021,81.849 86.547,82.399 85.736 C 82.948 84.926,84.298 83.555,85.399 82.690 C 86.499 81.825,88.174 80.138,89.120 78.941 C 90.065 77.744,91.865 76.110,93.120 75.310 C 94.374 74.510,96.422 72.820,97.672 71.554 C 100.066 69.128,108.995 62.924,113.022 60.888 C 114.330 60.227,116.480 58.840,117.800 57.807 C 120.608 55.610,123.436 54.116,127.600 52.628 C 129.250 52.039,131.805 50.832,133.278 49.946 C 136.009 48.303,137.828 47.624,142.353 46.559 C 143.757 46.228,146.779 45.158,149.068 44.180 C 154.557 41.836,161.539 39.847,167.115 39.041 C 172.794 38.219,172.894 38.152,175.042 33.760 C 180.557 22.477,194.980 15.675,206.010 19.154 M158.000 57.787 C 151.730 59.869,145.610 61.841,144.400 62.170 C 143.190 62.498,141.120 63.422,139.800 64.223 C 138.480 65.023,135.540 66.400,133.267 67.282 C 130.465 68.368,128.339 69.515,126.667 70.842 C 125.310 71.918,122.732 73.510,120.939 74.378 C 118.856 75.387,116.193 77.203,113.570 79.405 C 111.312 81.302,108.729 83.227,107.832 83.685 C 106.145 84.544,101.516 88.497,98.641 91.534 C 96.548 93.745,93.745 96.548,91.534 98.641 C 88.475 101.537,84.585 106.136,83.278 108.400 C 82.580 109.610,80.740 112.040,79.190 113.800 C 77.378 115.856,75.729 118.287,74.576 120.600 C 73.589 122.580,71.904 125.310,70.833 126.667 C 69.523 128.326,68.360 130.487,67.282 133.267 C 66.400 135.540,65.025 138.478,64.228 139.796 C 63.430 141.113,62.419 143.453,61.982 144.996 C 61.545 146.538,59.585 152.660,57.627 158.600 L 54.066 169.400 53.196 178.600 C 51.748 193.904,52.064 212.774,54.016 227.602 C 54.252 229.390,55.480 233.677,57.054 238.202 C 58.507 242.381,60.320 247.960,61.082 250.600 C 62.533 255.624,64.992 260.880,66.917 263.072 L 68.050 264.363 74.125 264.281 C 86.506 264.116,94.052 268.340,100.088 278.815 C 103.886 285.405,104.155 297.899,100.616 303.247 C 98.066 307.100,99.865 309.630,109.955 316.382 C 112.020 317.764,114.784 319.882,116.097 321.089 C 117.577 322.450,119.641 323.811,121.528 324.671 C 123.202 325.434,125.388 326.649,126.386 327.370 C 129.099 329.332,133.518 331.786,136.000 332.709 C 137.210 333.159,140.506 334.535,143.324 335.768 C 146.142 337.001,150.372 338.474,152.724 339.043 C 155.076 339.611,159.700 340.956,163.000 342.030 C 183.547 348.718,215.518 348.653,236.000 341.881 C 238.970 340.899,243.470 339.608,246.000 339.011 C 248.790 338.353,252.253 337.165,254.800 335.993 C 257.110 334.930,260.510 333.484,262.355 332.779 C 264.200 332.075,267.350 330.436,269.355 329.137 C 271.360 327.838,274.890 325.803,277.200 324.615 C 279.919 323.217,282.035 321.803,283.200 320.604 C 284.190 319.585,285.630 318.369,286.400 317.901 C 292.538 314.173,297.200 309.848,297.200 307.882 C 297.200 307.026,296.525 304.228,295.700 301.663 C 293.573 295.052,293.591 290.994,295.773 284.400 C 297.861 278.094,298.215 277.497,302.387 273.257 C 308.371 267.175,312.759 265.729,323.861 266.182 C 331.218 266.482,331.244 266.467,333.329 261.000 C 334.085 259.020,335.443 255.804,336.347 253.853 C 337.251 251.903,338.464 248.303,339.041 245.853 C 339.619 243.404,340.965 238.700,342.034 235.400 C 348.696 214.821,348.689 183.640,342.016 163.000 C 340.949 159.700,339.611 155.076,339.043 152.724 C 338.474 150.372,337.001 146.142,335.769 143.324 C 334.537 140.506,333.119 137.120,332.618 135.800 C 331.687 133.343,328.688 127.999,326.971 125.733 C 326.442 125.037,325.397 123.121,324.647 121.476 C 323.813 119.644,322.436 117.562,321.097 116.106 C 319.895 114.798,317.783 112.034,316.406 109.964 C 311.615 102.764,297.750 88.506,291.147 83.988 C 289.086 82.577,286.086 80.279,284.481 78.880 C 282.757 77.378,280.381 75.796,278.681 75.016 C 277.096 74.289,275.080 73.116,274.200 72.408 C 271.845 70.515,267.734 68.170,265.000 67.161 C 263.680 66.674,260.980 65.414,259.000 64.362 C 256.978 63.288,253.559 61.930,251.200 61.265 C 248.890 60.613,243.321 58.802,238.824 57.240 C 227.775 53.402,226.339 53.429,224.537 57.504 C 221.074 65.334,209.184 73.406,200.400 73.889 C 193.208 74.285,184.347 70.184,178.351 63.686 C 176.143 61.292,175.979 61.029,174.253 57.098 C 172.463 53.020,172.346 53.025,158.000 57.787 M172.854 55.451 C 173.213 55.775,173.901 57.120,174.383 58.441 C 177.454 66.863,190.527 74.800,200.528 74.315 C 209.291 73.890,221.521 65.627,224.987 57.792 C 226.719 53.875,227.614 53.887,239.611 57.995 C 244.744 59.753,250.306 61.562,251.972 62.016 C 253.637 62.470,257.160 63.891,259.800 65.174 C 262.440 66.457,265.960 68.151,267.623 68.937 C 269.286 69.724,271.942 71.324,273.526 72.492 C 275.110 73.660,277.473 75.040,278.777 75.558 C 280.341 76.179,282.195 77.435,284.224 79.247 C 285.916 80.758,288.568 82.829,290.117 83.850 C 293.812 86.284,300.084 91.822,302.430 94.720 C 303.455 95.987,304.952 97.526,305.757 98.140 C 307.979 99.835,312.985 105.726,316.004 110.200 C 317.489 112.400,319.760 115.397,321.052 116.860 C 322.404 118.392,323.778 120.467,324.292 121.750 C 324.783 122.976,326.133 125.396,327.292 127.127 C 331.235 133.015,336.916 146.008,338.641 153.084 C 339.220 155.458,340.562 160.100,341.622 163.400 C 348.140 183.678,348.143 215.884,341.629 235.161 C 340.760 237.733,339.493 242.165,338.813 245.011 C 338.026 248.305,336.873 251.715,335.642 254.393 C 334.579 256.707,333.201 259.918,332.579 261.530 C 330.882 265.935,330.716 266.013,323.668 265.731 C 312.550 265.285,308.686 266.533,302.459 272.579 C 297.798 277.104,297.496 277.590,295.370 284.000 C 293.161 290.660,293.142 295.359,295.300 302.056 C 297.700 309.505,297.465 309.913,286.600 317.175 C 285.500 317.910,283.694 319.387,282.587 320.456 C 281.374 321.628,279.067 323.161,276.787 324.310 C 274.704 325.360,271.290 327.329,269.200 328.685 C 267.110 330.042,263.690 331.801,261.600 332.594 C 259.510 333.388,256.090 334.833,254.000 335.806 C 251.656 336.897,248.214 338.049,245.019 338.812 C 242.169 339.492,237.733 340.760,235.161 341.629 C 215.911 348.134,183.486 348.137,163.400 341.636 C 160.100 340.568,155.446 339.217,153.058 338.635 C 150.670 338.052,146.620 336.660,144.058 335.541 C 141.496 334.422,138.140 333.022,136.600 332.430 C 133.614 331.282,129.287 328.876,125.737 326.390 C 124.541 325.552,122.641 324.537,121.514 324.134 C 120.248 323.680,118.502 322.528,116.946 321.119 C 115.560 319.865,112.755 317.722,110.713 316.358 C 100.110 309.276,98.932 307.536,101.392 302.600 C 104.403 296.560,104.395 286.851,101.374 280.436 C 95.981 268.982,87.662 263.815,74.600 263.805 C 71.300 263.802,68.301 263.620,67.936 263.400 C 66.692 262.651,63.691 257.189,62.601 253.689 C 62.003 251.770,59.986 245.661,58.118 240.114 C 53.547 226.534,53.046 222.491,53.046 199.200 C 53.046 177.165,53.648 171.876,57.412 160.800 C 58.871 156.510,60.830 150.480,61.766 147.400 C 62.812 143.962,64.029 140.893,64.919 139.450 C 65.716 138.157,66.852 135.817,67.443 134.250 C 69.027 130.052,70.123 128.017,72.000 125.792 C 72.924 124.696,74.357 122.360,75.184 120.600 C 76.145 118.554,77.706 116.226,79.513 114.143 C 81.067 112.352,83.089 109.652,84.005 108.143 C 85.653 105.431,87.724 103.049,92.000 98.952 C 94.612 96.450,96.109 94.958,98.978 92.000 C 103.292 87.552,105.571 85.568,108.198 83.972 C 109.677 83.074,112.352 81.067,114.143 79.513 C 116.274 77.664,118.507 76.175,120.603 75.207 C 122.365 74.392,124.678 72.971,125.743 72.049 C 127.894 70.187,130.004 69.045,134.250 67.443 C 135.817 66.852,138.157 65.716,139.450 64.919 C 140.899 64.025,143.946 62.819,147.400 61.772 C 150.480 60.839,155.970 59.061,159.600 57.820 C 170.276 54.173,171.243 54.000,172.854 55.451 M137.836 115.397 C 133.338 116.737,131.077 118.799,127.527 124.800 C 125.089 128.921,125.163 126.557,125.287 196.600 L 125.400 260.600 126.319 262.874 C 127.223 265.111,131.243 270.987,133.563 273.461 C 138.017 278.212,153.164 278.131,158.778 273.326 C 160.596 271.770,163.466 266.910,165.070 262.672 L 166.156 259.800 166.435 224.800 C 166.840 174.114,167.233 169.934,172.220 163.402 C 173.029 162.341,174.535 160.151,175.566 158.534 C 177.578 155.380,181.993 151.906,187.400 149.219 C 194.311 145.786,211.457 146.083,216.087 149.716 C 223.311 155.384,224.494 158.101,227.185 175.200 C 227.441 176.826,227.597 191.211,227.603 213.600 C 227.615 258.503,227.698 259.585,231.731 267.400 C 236.232 276.120,244.422 279.030,255.978 276.016 C 259.709 275.043,260.369 274.546,263.709 270.194 C 268.526 263.916,268.395 265.504,268.389 213.400 C 268.383 157.873,268.106 152.912,264.613 145.800 C 263.640 143.820,262.263 140.760,261.553 139.000 C 260.510 136.419,259.782 135.328,257.785 133.357 C 256.423 132.013,254.565 129.906,253.654 128.673 C 251.974 126.399,246.705 122.599,240.375 119.097 C 233.290 115.177,215.938 113.321,204.042 115.210 C 192.361 117.065,190.669 117.644,184.200 122.001 C 182.660 123.038,180.434 124.376,179.254 124.974 C 178.066 125.575,175.722 127.431,174.004 129.130 C 169.686 133.402,165.385 137.200,164.865 137.200 C 164.082 137.200,163.558 135.630,162.753 130.875 C 160.544 117.824,150.542 111.612,137.836 115.397 M149.162 115.612 C 157.449 117.598,160.721 121.537,162.380 131.524 C 163.814 140.161,163.680 140.183,174.335 129.537 C 176.021 127.853,178.210 126.075,179.200 125.586 C 180.190 125.097,183.018 123.368,185.484 121.745 C 190.414 118.498,190.876 118.278,194.528 117.431 C 208.900 114.098,220.565 114.041,234.000 117.239 C 239.122 118.458,249.863 124.763,252.506 128.103 C 253.218 129.002,255.084 131.102,256.653 132.769 C 259.505 135.798,260.475 137.331,262.016 141.240 C 262.467 142.384,263.545 144.778,264.412 146.560 C 267.585 153.079,267.990 160.736,267.988 214.200 C 267.987 262.659,267.912 263.722,264.125 268.869 C 259.588 275.036,256.461 276.582,248.600 276.543 C 239.646 276.499,235.559 274.073,231.958 266.667 C 228.413 259.375,228.697 263.287,228.392 217.600 C 228.153 181.752,228.041 176.579,227.439 173.400 C 224.390 157.321,223.895 155.910,220.200 152.783 C 219.320 152.039,217.784 150.687,216.786 149.779 C 212.018 145.441,192.593 145.163,186.062 149.339 C 178.069 154.450,176.632 155.581,175.617 157.558 C 175.210 158.351,173.876 160.350,172.653 162.000 C 166.584 170.186,166.444 171.484,166.043 223.600 L 165.767 259.400 164.854 262.000 C 163.658 265.408,160.532 271.015,158.925 272.637 C 154.029 277.577,138.376 277.812,133.800 273.014 C 131.430 270.529,127.534 264.788,126.675 262.516 L 125.800 260.200 125.800 195.400 C 125.800 122.848,125.565 128.347,128.869 123.520 C 132.623 118.035,134.118 116.858,138.930 115.596 C 142.656 114.620,145.039 114.623,149.162 115.612 " stroke="none" fill="#74a47c" fill-rule="evenodd"></path><path id="path4" d="M194.514 18.578 C 187.028 20.282,178.306 27.082,175.042 33.760 C 172.894 38.152,172.794 38.219,167.115 39.041 C 161.539 39.847,154.557 41.836,149.068 44.180 C 146.779 45.158,143.757 46.228,142.353 46.559 C 137.828 47.624,136.009 48.303,133.278 49.946 C 131.805 50.832,129.250 52.039,127.600 52.628 C 123.436 54.116,120.608 55.610,117.800 57.807 C 116.480 58.840,114.330 60.227,113.022 60.888 C 108.995 62.924,100.066 69.128,97.672 71.554 C 96.422 72.820,94.374 74.510,93.120 75.310 C 91.865 76.110,90.065 77.744,89.120 78.941 C 88.174 80.138,86.499 81.825,85.399 82.690 C 84.298 83.555,82.948 84.926,82.399 85.736 C 81.849 86.547,80.361 88.021,79.091 89.012 C 77.821 90.003,76.123 91.846,75.318 93.107 C 74.514 94.368,72.820 96.422,71.554 97.672 C 69.139 100.055,62.946 108.962,60.880 113.022 C 60.215 114.330,58.826 116.480,57.793 117.800 C 55.606 120.595,54.123 123.410,52.633 127.600 C 52.046 129.250,50.967 131.590,50.236 132.800 C 48.194 136.177,48.112 136.382,46.839 141.244 C 46.182 143.750,45.022 147.150,44.260 148.800 C 41.291 155.230,39.323 163.363,38.404 173.000 C 38.152 175.640,37.700 179.510,37.400 181.600 C 35.800 192.725,35.805 206.477,37.412 217.200 C 37.725 219.290,38.257 223.726,38.593 227.057 C 39.517 236.214,40.907 241.748,44.387 250.128 C 45.225 252.147,46.376 255.550,46.943 257.689 C 47.962 261.528,49.203 264.410,51.032 267.180 C 53.739 271.282,53.640 274.910,50.637 281.500 C 46.763 290.004,47.032 294.333,52.076 304.686 C 54.431 309.521,54.489 309.596,57.528 311.790 C 59.218 313.009,61.270 314.522,62.088 315.152 C 64.858 317.282,67.924 317.800,77.800 317.802 C 87.835 317.805,87.812 317.800,89.827 320.259 C 90.650 321.264,92.691 323.085,94.362 324.307 C 96.033 325.528,98.767 327.748,100.437 329.240 C 102.108 330.731,104.628 332.624,106.037 333.447 C 107.447 334.269,109.500 335.610,110.600 336.427 C 111.700 337.244,113.680 338.454,115.000 339.114 C 116.320 339.775,119.464 341.593,121.986 343.154 C 124.508 344.715,127.748 346.379,129.186 346.853 C 130.624 347.326,133.735 348.680,136.101 349.861 C 138.758 351.187,141.740 352.319,143.901 352.822 C 145.825 353.270,148.930 354.157,150.800 354.794 C 169.539 361.173,173.584 361.755,199.200 361.756 C 222.831 361.757,228.504 361.114,240.866 357.031 C 245.783 355.407,251.889 353.530,254.436 352.860 C 257.391 352.082,260.468 350.921,262.939 349.651 C 265.069 348.557,268.223 347.192,269.948 346.617 C 271.837 345.988,274.200 344.787,275.893 343.594 C 277.438 342.505,280.615 340.625,282.953 339.415 C 285.290 338.206,288.137 336.478,289.278 335.576 C 290.419 334.674,292.263 333.479,293.376 332.921 C 294.489 332.363,296.573 330.802,298.007 329.453 C 299.441 328.104,302.200 325.740,304.139 324.200 C 306.077 322.660,308.383 320.815,309.263 320.100 C 311.080 318.623,312.231 318.496,315.600 319.400 C 326.060 322.208,341.179 315.374,345.651 305.817 C 349.055 298.543,348.850 287.309,345.160 278.895 C 344.363 277.078,344.298 276.586,344.681 275.295 C 345.761 271.660,348.474 264.964,349.950 262.290 C 350.971 260.441,352.021 257.622,352.820 254.587 C 353.513 251.954,355.411 245.750,357.037 240.800 C 361.122 228.365,361.755 222.788,361.760 199.200 C 361.765 174.471,360.488 165.464,354.991 151.486 C 354.663 150.653,353.850 147.863,353.183 145.286 C 352.431 142.380,351.078 138.701,349.620 135.600 C 348.327 132.850,346.982 129.694,346.631 128.587 C 346.281 127.480,344.716 124.510,343.155 121.987 C 341.593 119.464,339.775 116.320,339.114 115.000 C 338.454 113.680,337.247 111.700,336.432 110.600 C 335.618 109.500,334.344 107.530,333.602 106.222 C 332.860 104.914,330.969 102.394,329.400 100.622 C 327.831 98.850,325.769 96.320,324.818 95.000 C 323.867 93.680,321.669 91.160,319.934 89.400 C 318.199 87.640,314.771 84.152,312.315 81.648 C 309.859 79.144,307.118 76.567,306.225 75.920 C 305.331 75.273,302.924 73.271,300.875 71.472 C 298.826 69.672,295.839 67.390,294.238 66.400 C 292.637 65.410,290.623 64.039,289.763 63.352 C 288.903 62.666,287.233 61.617,286.051 61.021 C 284.869 60.425,282.349 58.894,280.451 57.620 C 276.652 55.069,273.842 53.574,271.400 52.805 C 270.520 52.528,268.000 51.345,265.800 50.175 C 263.200 48.793,260.260 47.630,257.400 46.852 C 254.980 46.195,251.470 44.999,249.600 44.196 C 244.512 42.009,237.581 40.002,232.257 39.174 C 226.737 38.315,225.971 37.909,224.551 35.093 C 218.880 23.844,204.973 16.198,194.514 18.578 M205.616 20.504 C 212.441 22.671,219.960 29.195,223.469 35.992 C 225.102 39.156,226.216 39.745,232.061 40.538 C 237.473 41.271,243.402 43.007,250.015 45.792 C 252.333 46.769,255.843 47.943,257.815 48.401 C 260.396 49.002,262.464 49.834,265.200 51.375 C 267.290 52.552,269.990 53.829,271.200 54.212 C 274.184 55.156,275.154 55.674,279.830 58.812 C 282.047 60.299,284.837 62.010,286.030 62.614 C 287.224 63.219,288.920 64.299,289.800 65.016 C 290.680 65.733,292.489 66.955,293.820 67.732 C 295.151 68.509,297.826 70.552,299.763 72.272 C 301.701 73.993,304.044 75.940,304.971 76.600 C 305.897 77.260,308.761 79.960,311.335 82.600 C 313.908 85.240,317.517 88.930,319.353 90.800 C 321.190 92.670,323.112 94.830,323.624 95.600 C 324.137 96.370,326.136 98.842,328.066 101.093 C 329.997 103.344,331.964 105.954,332.437 106.893 C 332.911 107.832,334.167 109.780,335.229 111.223 C 336.292 112.665,337.356 114.359,337.595 114.988 C 338.024 116.114,342.185 123.165,343.676 125.291 C 344.097 125.891,344.858 127.601,345.366 129.091 C 345.875 130.581,347.297 133.870,348.526 136.400 C 349.755 138.930,351.042 142.260,351.385 143.800 C 351.728 145.340,352.719 148.760,353.587 151.400 C 358.855 167.427,358.725 166.890,359.576 176.289 C 361.095 193.073,361.045 206.539,359.397 224.588 C 358.750 231.667,358.365 233.158,353.613 247.000 C 353.008 248.760,352.102 251.910,351.598 254.000 C 351.032 256.348,349.882 259.405,348.590 262.000 C 347.439 264.310,345.916 267.820,345.205 269.800 C 344.495 271.780,343.670 274.057,343.373 274.859 C 342.775 276.472,342.888 277.056,344.598 281.175 C 346.855 286.610,347.391 293.686,346.041 300.224 C 343.497 312.553,328.418 321.358,315.600 318.000 C 311.654 316.967,310.615 317.212,307.376 319.939 C 305.898 321.182,303.230 323.332,301.445 324.716 C 299.660 326.100,297.300 328.106,296.200 329.175 C 295.100 330.244,293.390 331.515,292.400 332.001 C 291.410 332.486,289.610 333.651,288.400 334.589 C 287.190 335.526,284.580 337.107,282.600 338.101 C 280.620 339.095,277.740 340.755,276.200 341.791 C 272.666 344.167,271.937 344.543,268.834 345.588 C 267.445 346.057,264.394 347.394,262.054 348.561 C 259.404 349.882,256.367 351.027,254.000 351.598 C 251.910 352.102,248.760 353.013,247.000 353.622 C 233.864 358.171,231.587 358.757,224.566 359.399 C 206.515 361.047,192.983 361.098,176.289 359.580 C 166.893 358.725,167.420 358.852,151.400 353.587 C 148.760 352.719,145.340 351.728,143.800 351.385 C 142.260 351.042,138.840 349.717,136.200 348.439 C 133.560 347.162,130.410 345.801,129.200 345.414 C 127.990 345.027,125.875 344.011,124.500 343.155 C 123.125 342.300,120.875 340.896,119.500 340.035 C 118.125 339.174,116.059 338.022,114.908 337.475 C 113.758 336.928,112.116 335.926,111.261 335.248 C 110.405 334.570,108.601 333.392,107.251 332.629 C 105.902 331.866,103.043 329.734,100.899 327.889 C 98.755 326.045,96.190 323.987,95.200 323.316 C 94.210 322.644,92.378 321.005,91.130 319.673 C 88.105 316.447,86.883 315.843,84.035 316.164 C 72.711 317.441,65.697 316.477,61.495 313.066 C 60.343 312.131,58.529 310.769,57.465 310.040 C 55.730 308.850,55.267 308.173,52.969 303.457 C 48.213 293.699,48.100 290.322,52.227 281.140 C 55.247 274.421,55.108 271.744,51.399 265.200 C 49.822 262.417,48.981 260.330,48.257 257.400 C 47.713 255.200,46.602 251.870,45.788 250.000 C 43.256 244.184,41.251 237.355,40.622 232.400 C 36.867 202.858,36.726 198.223,39.011 179.400 C 40.801 164.652,41.227 161.636,41.751 160.000 C 42.068 159.010,42.804 156.708,43.388 154.884 C 43.971 153.060,44.996 150.360,45.666 148.884 C 46.337 147.408,47.471 144.001,48.187 141.313 C 49.162 137.655,49.900 135.794,51.123 133.913 C 52.022 132.531,53.324 129.780,54.017 127.800 C 55.444 123.720,57.005 120.788,59.058 118.330 C 59.833 117.403,61.013 115.564,61.679 114.244 C 63.791 110.060,70.037 101.114,73.073 97.925 C 74.683 96.234,76.000 94.658,76.000 94.423 C 76.000 93.865,93.865 76.000,94.423 76.000 C 94.658 76.000,96.234 74.683,97.925 73.073 C 101.064 70.085,110.079 63.774,114.015 61.809 C 115.217 61.209,117.202 59.941,118.426 58.991 C 121.124 56.897,124.597 55.093,128.463 53.778 C 130.050 53.239,132.490 52.053,133.885 51.145 C 135.787 49.906,137.644 49.164,141.311 48.179 C 144.000 47.457,147.966 46.121,150.125 45.210 C 155.744 42.839,161.231 41.305,167.121 40.456 C 173.555 39.528,173.887 39.311,176.176 34.544 C 181.459 23.540,194.937 17.113,205.616 20.504 M167.200 53.348 C 166.210 53.643,162.430 54.913,158.800 56.171 C 155.170 57.428,149.799 59.153,146.865 60.004 C 143.347 61.024,140.622 62.095,138.865 63.150 C 137.399 64.030,135.024 65.188,133.586 65.725 C 129.705 67.172,127.205 68.530,124.772 70.512 C 123.574 71.488,121.242 72.911,119.591 73.674 C 117.638 74.576,115.332 76.145,112.994 78.163 C 111.017 79.870,108.544 81.705,107.498 82.241 C 105.596 83.216,100.343 87.638,97.637 90.542 C 95.797 92.517,92.517 95.797,90.542 97.637 C 87.638 100.343,83.216 105.596,82.241 107.498 C 81.705 108.544,79.870 111.017,78.163 112.994 C 76.145 115.332,74.576 117.638,73.674 119.591 C 72.911 121.242,71.488 123.574,70.512 124.772 C 68.530 127.205,67.172 129.705,65.725 133.586 C 65.188 135.024,64.030 137.399,63.150 138.865 C 62.092 140.628,61.029 143.335,60.009 146.865 C 59.160 149.799,57.277 155.620,55.823 159.800 C 48.997 179.426,49.061 219.042,55.951 239.202 C 57.493 243.713,59.406 249.563,60.201 252.202 C 61.181 255.452,62.371 258.270,63.887 260.937 C 66.805 266.066,67.321 266.345,72.545 265.628 C 79.364 264.692,88.498 267.441,93.209 271.847 C 99.344 277.586,101.838 284.048,101.522 293.383 L 101.339 298.765 99.444 302.534 C 96.779 307.832,98.260 310.143,108.861 317.225 C 110.918 318.599,113.905 320.856,115.499 322.242 C 117.135 323.663,119.837 325.471,121.699 326.391 C 123.515 327.288,126.710 329.093,128.800 330.403 C 130.890 331.714,134.130 333.402,136.000 334.156 C 137.870 334.910,141.380 336.376,143.800 337.415 C 146.220 338.454,150.900 339.988,154.200 340.825 C 157.500 341.661,162.000 342.969,164.200 343.732 C 182.734 350.161,215.261 349.930,236.200 343.220 C 239.500 342.163,244.143 340.838,246.517 340.276 C 248.979 339.693,252.502 338.475,254.717 337.441 C 256.853 336.445,260.243 335.019,262.251 334.274 C 264.408 333.474,267.883 331.665,270.739 329.855 C 273.399 328.170,276.886 326.193,278.488 325.462 C 280.411 324.584,282.374 323.238,284.267 321.498 C 285.844 320.049,287.554 318.639,288.067 318.365 C 289.334 317.688,296.821 311.888,297.734 310.876 C 299.096 309.366,298.984 307.397,297.219 301.800 C 295.061 294.957,294.877 293.055,295.956 288.780 C 300.091 272.398,309.829 265.447,325.683 267.561 C 331.201 268.297,332.182 267.645,334.440 261.741 C 335.100 260.013,336.436 256.890,337.407 254.800 C 338.380 252.705,339.646 249.026,340.228 246.600 C 340.809 244.180,342.153 239.500,343.216 236.200 C 350.021 215.066,350.165 182.937,343.542 163.600 C 342.675 161.070,341.411 156.671,340.732 153.824 C 340.018 150.831,338.658 146.698,337.506 144.024 C 336.411 141.481,335.017 138.109,334.410 136.532 C 333.149 133.260,330.923 129.099,328.909 126.251 C 328.151 125.179,326.827 122.839,325.966 121.051 C 325.039 119.127,323.400 116.665,321.948 115.018 C 320.600 113.488,318.542 110.788,317.375 109.018 C 312.174 101.128,298.798 87.529,291.200 82.404 C 289.330 81.143,286.568 78.994,285.062 77.628 C 283.344 76.070,281.251 74.656,279.446 73.833 C 277.863 73.112,275.426 71.681,274.030 70.654 C 272.634 69.626,269.941 68.053,268.046 67.159 C 266.151 66.265,262.620 64.564,260.200 63.379 C 257.780 62.195,254.180 60.746,252.200 60.160 C 250.220 59.574,244.640 57.748,239.800 56.102 C 227.133 51.796,225.101 51.900,223.323 56.948 C 220.707 64.374,206.676 73.223,198.400 72.666 C 189.718 72.081,178.588 64.495,175.832 57.285 C 174.199 53.009,171.882 51.953,167.200 53.348 M172.195 54.398 C 172.930 54.678,173.544 55.483,174.253 57.098 C 175.979 61.029,176.143 61.292,178.351 63.686 C 184.347 70.184,193.208 74.285,200.400 73.889 C 209.184 73.406,221.074 65.334,224.537 57.504 C 226.339 53.429,227.775 53.402,238.824 57.240 C 243.321 58.802,248.890 60.613,251.200 61.265 C 253.559 61.930,256.978 63.288,259.000 64.362 C 260.980 65.414,263.680 66.674,265.000 67.161 C 267.734 68.170,271.845 70.515,274.200 72.408 C 275.080 73.116,277.096 74.289,278.681 75.016 C 280.381 75.796,282.757 77.378,284.481 78.880 C 286.086 80.279,289.086 82.577,291.147 83.988 C 297.750 88.506,311.615 102.764,316.406 109.964 C 317.783 112.034,319.895 114.798,321.097 116.106 C 322.436 117.562,323.813 119.644,324.647 121.476 C 325.397 123.121,326.442 125.037,326.971 125.733 C 328.688 127.999,331.687 133.343,332.618 135.800 C 333.119 137.120,334.537 140.506,335.769 143.324 C 337.001 146.142,338.474 150.372,339.043 152.724 C 339.611 155.076,340.949 159.700,342.016 163.000 C 348.689 183.640,348.696 214.821,342.034 235.400 C 340.965 238.700,339.619 243.404,339.041 245.853 C 338.464 248.303,337.251 251.903,336.347 253.853 C 335.443 255.804,334.085 259.020,333.329 261.000 C 331.244 266.467,331.218 266.482,323.861 266.182 C 308.480 265.555,300.243 270.898,295.773 284.400 C 293.591 290.994,293.573 295.052,295.700 301.663 C 298.133 309.227,298.101 309.316,291.000 314.648 C 289.240 315.969,287.170 317.433,286.400 317.901 C 285.630 318.369,284.190 319.585,283.200 320.604 C 282.035 321.803,279.919 323.217,277.200 324.615 C 274.890 325.803,271.360 327.838,269.355 329.137 C 267.350 330.436,264.200 332.075,262.355 332.779 C 260.510 333.484,257.110 334.930,254.800 335.993 C 252.253 337.165,248.790 338.353,246.000 339.011 C 243.470 339.608,238.970 340.899,236.000 341.881 C 215.518 348.653,183.547 348.718,163.000 342.030 C 159.700 340.956,155.076 339.611,152.724 339.043 C 150.372 338.474,146.142 337.001,143.324 335.768 C 140.506 334.535,137.210 333.159,136.000 332.709 C 133.518 331.786,129.099 329.332,126.386 327.370 C 125.388 326.649,123.202 325.434,121.528 324.671 C 119.641 323.811,117.577 322.450,116.097 321.089 C 114.784 319.882,112.020 317.764,109.955 316.382 C 99.865 309.630,98.066 307.100,100.616 303.247 C 104.155 297.899,103.886 285.405,100.088 278.815 C 94.052 268.340,86.506 264.116,74.125 264.281 L 68.050 264.363 66.917 263.072 C 64.992 260.880,62.533 255.624,61.082 250.600 C 60.320 247.960,58.507 242.381,57.054 238.202 C 55.480 233.677,54.252 229.390,54.016 227.602 C 52.064 212.774,51.748 193.904,53.196 178.600 L 54.066 169.400 57.627 158.600 C 59.585 152.660,61.545 146.538,61.982 144.996 C 62.419 143.453,63.430 141.113,64.228 139.796 C 65.025 138.478,66.400 135.540,67.282 133.267 C 68.360 130.487,69.523 128.326,70.833 126.667 C 71.904 125.310,73.589 122.580,74.576 120.600 C 75.729 118.287,77.378 115.856,79.190 113.800 C 80.740 112.040,82.580 109.610,83.278 108.400 C 84.585 106.136,88.475 101.537,91.534 98.641 C 93.745 96.548,96.548 93.745,98.641 91.534 C 101.516 88.497,106.145 84.544,107.832 83.685 C 108.729 83.227,111.312 81.302,113.570 79.405 C 116.193 77.203,118.856 75.387,120.939 74.378 C 122.732 73.510,125.310 71.918,126.667 70.842 C 128.339 69.515,130.465 68.368,133.267 67.282 C 135.540 66.400,138.480 65.023,139.800 64.223 C 141.120 63.422,143.190 62.498,144.400 62.170 C 145.610 61.841,151.730 59.869,158.000 57.787 C 169.751 53.886,170.426 53.725,172.195 54.398 M138.930 115.596 C 134.118 116.858,132.623 118.035,128.869 123.520 C 125.565 128.347,125.800 122.848,125.800 195.400 L 125.800 260.200 126.675 262.516 C 127.534 264.788,131.430 270.529,133.800 273.014 C 138.376 277.812,154.029 277.577,158.925 272.637 C 160.532 271.015,163.658 265.408,164.854 262.000 L 165.767 259.400 166.043 223.600 C 166.444 171.484,166.584 170.186,172.653 162.000 C 173.876 160.350,175.210 158.351,175.617 157.558 C 176.632 155.581,178.069 154.450,186.062 149.339 C 192.593 145.163,212.018 145.441,216.786 149.779 C 217.784 150.687,219.320 152.039,220.200 152.783 C 223.895 155.910,224.390 157.321,227.439 173.400 C 228.041 176.579,228.153 181.752,228.392 217.600 C 228.697 263.287,228.413 259.375,231.958 266.667 C 235.559 274.073,239.646 276.499,248.600 276.543 C 256.461 276.582,259.588 275.036,264.125 268.869 C 267.912 263.722,267.987 262.659,267.988 214.200 C 267.990 160.736,267.585 153.079,264.412 146.560 C 263.545 144.778,262.467 142.384,262.016 141.240 C 260.475 137.331,259.505 135.798,256.653 132.769 C 255.084 131.102,253.218 129.002,252.506 128.103 C 249.863 124.763,239.122 118.458,234.000 117.239 C 220.565 114.041,208.900 114.098,194.528 117.431 C 190.876 118.278,190.414 118.498,185.484 121.745 C 183.018 123.368,180.190 125.097,179.200 125.586 C 178.210 126.075,176.021 127.853,174.335 129.537 C 163.680 140.183,163.814 140.161,162.380 131.524 C 160.721 121.537,157.449 117.598,149.162 115.612 C 145.039 114.623,142.656 114.620,138.930 115.596 M149.371 117.071 C 156.892 118.936,159.730 122.740,161.203 132.925 C 162.393 141.151,164.716 142.405,168.541 136.886 C 169.141 136.020,170.595 134.648,171.772 133.837 C 172.949 133.026,174.850 131.285,175.996 129.967 C 177.344 128.417,178.889 127.163,180.371 126.415 C 181.631 125.779,184.178 124.239,186.031 122.994 C 191.562 119.277,193.371 118.707,205.800 116.762 C 215.428 115.255,233.450 117.263,239.187 120.482 C 245.362 123.947,251.024 128.009,252.295 129.887 C 253.008 130.939,254.731 132.897,256.124 134.237 C 258.102 136.141,258.902 137.280,259.775 139.437 C 260.390 140.957,261.752 144.000,262.801 146.200 C 266.307 153.547,266.484 157.009,266.318 215.000 C 266.167 267.892,266.501 263.400,262.293 269.081 C 258.633 274.024,254.784 275.545,247.090 275.090 C 239.875 274.663,236.929 272.986,233.931 267.600 C 229.605 259.829,229.608 259.868,229.600 217.200 C 229.593 179.611,229.468 176.526,227.579 167.066 C 225.470 156.500,225.248 155.996,220.819 151.671 C 214.935 145.927,213.971 145.575,203.367 145.309 C 192.009 145.024,188.393 145.806,182.902 149.733 C 181.416 150.796,179.300 152.238,178.200 152.937 C 177.011 153.692,175.680 155.017,174.918 156.204 C 174.213 157.302,172.569 159.730,171.266 161.600 C 165.208 170.288,165.211 170.260,164.837 220.800 C 164.517 264.016,164.858 260.182,160.674 267.600 C 157.370 273.460,154.223 275.004,145.600 274.995 C 138.132 274.987,135.900 274.038,132.651 269.487 C 126.279 260.560,127.000 270.109,127.000 194.600 L 127.000 130.200 127.863 128.096 C 131.836 118.411,139.317 114.576,149.371 117.071 " stroke="none" fill="#84ac84" fill-rule="evenodd"></path></g></svg>